<svg width="24" height="24" viewBox="0 0 24 24" fill="none" xmlns="http://www.w3.org/2000/svg">
<path d="M6.14363 18.6623C7.53983 20.3313 9.63775 21.2998 11.851 21.2998H11.8648M3.6546 11.611C3.68164 8.98562 4.92224 6.53444 6.80448 4.99585L3.6546 11.611Z" stroke="black" stroke-width="1.5" stroke-linecap="round" stroke-linejoin="round"/>
<path d="M6.00305 4.51462L7.75612 5.53774" stroke="black" stroke-width="1.5" stroke-linecap="round" stroke-linejoin="round"/>
<path d="M6.00305 4.5146C6.8083 3.70264 7.7666 3.05846 8.82248 2.61935C9.87837 2.18025 11.0109 1.95495 12.1544 1.95649H12.2427" stroke="black" stroke-width="1.5" stroke-linecap="round" stroke-linejoin="round"/>
<path d="M12.2181 3.70236C11.3897 3.69666 10.5685 3.85602 9.80244 4.17114C9.03635 4.48627 8.3407 4.95084 7.7561 5.53773" stroke="black" stroke-width="1.5" stroke-linecap="round" stroke-linejoin="round"/>
<path d="M6.19531 11.1598V18.7939" stroke="black" stroke-width="1.5" stroke-linecap="round" stroke-linejoin="round"/>
<path d="M6.19526 11.1598C3.49175 11.1598 1.30432 12.869 1.30432 14.9772C1.30432 17.0853 3.49356 18.7939 6.19526 18.7939" stroke="black" stroke-width="1.5" stroke-linecap="round" stroke-linejoin="round"/>
<path d="M20.2625 11.569C20.236 9.05651 19.0056 6.71407 17.1384 5.24277" stroke="black" stroke-width="1.5" stroke-linecap="round" stroke-linejoin="round"/>
<path d="M18.057 4.51462L16.304 5.53774" stroke="black" stroke-width="1.5" stroke-linecap="round" stroke-linejoin="round"/>
<path d="M18.0571 4.5146C17.2521 3.70274 16.2941 3.05862 15.2385 2.61951C14.1829 2.18041 13.0508 1.95505 11.9075 1.95649H11.7477" stroke="black" stroke-width="1.5" stroke-linecap="round" stroke-linejoin="round"/>
<path d="M11.723 3.70236C13.4052 3.70236 15.1036 4.33738 16.304 5.53774" stroke="black" stroke-width="1.5" stroke-linecap="round" stroke-linejoin="round"/>
<path d="M17.8642 11.1598V18.7939" stroke="black" stroke-width="1.5" stroke-linecap="round" stroke-linejoin="round"/>
<path d="M17.8642 11.1598C20.5647 11.1598 22.7539 12.869 22.7539 14.9772C22.7539 17.0853 20.5647 18.7939 17.8642 18.7939" stroke="black" stroke-width="1.5" stroke-linecap="round" stroke-linejoin="round"/>
<path d="M12.7011 21.1309C12.7011 21.3372 12.64 21.5389 12.5254 21.7104C12.4108 21.8819 12.2479 22.0156 12.0573 22.0945C11.8667 22.1734 11.657 22.1941 11.4547 22.1538C11.2524 22.1136 11.0666 22.0143 10.9207 21.8684C10.7748 21.7226 10.6755 21.5367 10.6353 21.3344C10.595 21.1321 10.6157 20.9224 10.6946 20.7318C10.7736 20.5412 10.9072 20.3784 11.0788 20.2638C11.2503 20.1492 11.4519 20.088 11.6582 20.088C11.9348 20.088 12.2001 20.1979 12.3957 20.3935C12.5913 20.589 12.7011 20.8543 12.7011 21.1309Z" fill="white"/>
<path d="M11.6582 22.1739C12.2342 22.1739 12.7011 21.7069 12.7011 21.1309C12.7011 20.5549 12.2342 20.088 11.6582 20.088C11.0822 20.088 10.6152 20.5549 10.6152 21.1309C10.6152 21.7069 11.0822 22.1739 11.6582 22.1739Z" stroke="black" stroke-width="2" stroke-linecap="round" stroke-linejoin="round"/>
</svg>
