<svg xmlns="http://www.w3.org/2000/svg" width="853.035" height="954.157" viewBox="0 0 853.035 954.157">
  <g id="art" transform="translate(25.5 154.145)">
    <g id="ad_panel" data-name="ad panel" transform="translate(-25.5 -153.988)" fill="#f1f0ff">
      <path d="M 847.89208984375 953.5 L 5.107764720916748 953.5 C 2.567058801651001 953.5 0.5 951.9298706054688 0.5 950 L 0.5 4 C 0.5 2.070117712020874 2.567058801651001 0.5 5.107764720916748 0.5 L 847.89208984375 0.5 C 850.4329223632812 0.5 852.5 2.070117712020874 852.5 4 L 852.5 950 C 852.5 951.9298706054688 850.4329223632812 953.5 847.89208984375 953.5 Z" stroke="none"/>
      <path d="M 5.1077880859375 1 C 3.96588134765625 1 2.902099609375 1.340576171875 2.11260986328125 1.95880126953125 C 1.39520263671875 2.52069091796875 1 3.24566650390625 1 4 L 1 950 C 1 950.7543334960938 1.39520263671875 951.4793090820312 2.11260986328125 952.0411987304688 C 2.902099609375 952.659423828125 3.96588134765625 953 5.1077880859375 953 L 847.89208984375 953 C 849.0339965820312 953 850.0977783203125 952.659423828125 850.8873901367188 952.0411987304688 C 851.6047973632812 951.4793090820312 852 950.7543334960938 852 950 L 852 4 C 852 3.24566650390625 851.6047973632812 2.52069091796875 850.8873901367188 1.95880126953125 C 850.0977783203125 1.340576171875 849.0339965820312 1 847.89208984375 1 L 5.1077880859375 1 M 5.1077880859375 0 L 847.89208984375 0 C 850.7131958007812 0 853 1.79083251953125 853 4 L 853 950 C 853 952.2091674804688 850.7131958007812 954 847.89208984375 954 L 5.1077880859375 954 C 2.28680419921875 954 0 952.2091674804688 0 950 L 0 4 C 0 1.79083251953125 2.28680419921875 0 5.1077880859375 0 Z" stroke="none" fill="#dad8d8"/>
    </g>
    <g id="light_background" data-name="light background" transform="translate(-25.5 -154.145)" opacity="0.25">
      <path id="bg" d="M0,0H852.234V953.923H0Z" transform="translate(0.065 0.234)" fill="#f6f1ff"/>
      <g id="bg-2" data-name="bg" opacity="0.13">
        <path id="Path_3156" data-name="Path 3156" d="M2960-4951.925s163.337,220.211,852.154,348.181c0-9.41.03-184.687.03-184.687L2960-5094.534Z" transform="translate(-2959.931 5490.375)" fill="#deccea"/>
        <path id="Path_3157" data-name="Path 3157" d="M2960.018-4915.043S3143.7-4751.5,3812.173-4605.074c0-3.948.06-145.145.06-145.145S3369.664-4861,2959.98-5059.266C2959.98-5055.95,2960.018-4915.043,2960.018-4915.043Z" transform="translate(-2959.95 5312.443)" fill="#7a787c"/>
        <path id="Path_3158" data-name="Path 3158" d="M3383.189-4701.052c6.062-.057,127.289-.008,230.9,0s87.8.012,199.147.075l-.1-68.29s-687.725-127.037-852.125-360.226c.034,2.13-.06,181.958.011,182.707C3023.107-4868.521,3231.3-4716.459,3383.189-4701.052Z" transform="translate(-2960.935 5655.045)" fill="#7f748a"/>
        <path id="Path_3159" data-name="Path 3159" d="M2959.965-4883.882l337.438.168s-140.981-15.161-337.4-246.745C2960.008-5130.575,2959.965-4883.882,2959.965-4883.882Z" transform="translate(-2959.965 5837.871)" fill="#61566e"/>
        <path id="Path_3160" data-name="Path 3160" d="M2959.993-4879.419s165.069,163.082,760.488,309.237l.024-198.018s-563.3-126.346-760.448-364.093C2960.022-5130.864,2959.993-4879.419,2959.993-4879.419Z" transform="translate(-2883.941 5144.609)" fill="#9f9c9e"/>
        <path id="Path_3162" data-name="Path 3162" d="M3018.23-4906.718s-66.267,19.441,462.491,192.309c2.141,2.612.584-192.543.584-192.543Z" transform="translate(-2628.817 4906.953)" fill="#f0ecee"/>
        <path id="Path_3161" data-name="Path 3161" d="M2960-5005.323s154.157,240.883,852.22,372.737c.03-2.515.1-198.237.1-198.237s-162.12-6.858-587.236-174.475C3221.973-5005.279,2960-5005.323,2960-5005.323Z" transform="translate(-2959.939 5005.532)" fill="#cdc9cc"/>
      </g>
    </g>
    <path id="Path_7375" data-name="Path 7375" d="M1.287,0H7.436V-.949H2.314V-9.1H1.287ZM12.1.156a3.49,3.49,0,0,0,3.523-3.51V-3.38a3.454,3.454,0,0,0-3.5-3.484,3.479,3.479,0,0,0-3.51,3.51v.026A3.443,3.443,0,0,0,12.1.156Zm.026-.9A2.521,2.521,0,0,1,9.646-3.354V-3.38A2.481,2.481,0,0,1,12.1-5.98a2.543,2.543,0,0,1,2.5,2.626v.026A2.48,2.48,0,0,1,12.129-.741Zm8.333.9a3.463,3.463,0,0,0,2.743-1.3l-.637-.6a2.773,2.773,0,0,1-2.054,1,2.511,2.511,0,0,1-2.47-2.613V-3.38a2.48,2.48,0,0,1,2.405-2.6A2.714,2.714,0,0,1,22.49-4.966l.663-.7a3.466,3.466,0,0,0-2.691-1.2,3.465,3.465,0,0,0-3.445,3.51v.026A3.451,3.451,0,0,0,20.462.156Zm6.4-.013a2.945,2.945,0,0,0,2.431-1.157V0h.962V-4.108a2.653,2.653,0,0,0-.689-1.963,2.949,2.949,0,0,0-2.171-.741,5.55,5.55,0,0,0-2.444.559l.3.819a4.68,4.68,0,0,1,2.041-.494c1.261,0,2,.624,2,1.833v.234a7.136,7.136,0,0,0-2.067-.286c-1.7,0-2.873.754-2.873,2.171v.026A2.264,2.264,0,0,0,26.858.143Zm.195-.793c-.91,0-1.69-.494-1.69-1.339v-.026c0-.845.7-1.391,1.963-1.391A7.011,7.011,0,0,1,29.3-3.12v.65A2.032,2.032,0,0,1,27.053-.65Zm7.514.767a2.518,2.518,0,0,0,1.209-.286v-.858a2.1,2.1,0,0,1-.975.234A.994.994,0,0,1,33.67-1.911V-5.837H35.8v-.884H33.67V-8.749h-1v2.028h-.936v.884h.936v4.056A1.711,1.711,0,0,0,34.567.117ZM37.6-8.19H38.74V-9.3H37.6ZM37.661,0h1V-6.721h-1Zm6.4.156a3.49,3.49,0,0,0,3.523-3.51V-3.38a3.454,3.454,0,0,0-3.5-3.484,3.479,3.479,0,0,0-3.51,3.51v.026A3.443,3.443,0,0,0,44.057.156Zm.026-.9A2.521,2.521,0,0,1,41.6-3.354V-3.38a2.481,2.481,0,0,1,2.457-2.6,2.543,2.543,0,0,1,2.5,2.626v.026A2.48,2.48,0,0,1,44.083-.741Zm5.3.741h1V-3.848A1.978,1.978,0,0,1,52.4-5.954a1.791,1.791,0,0,1,1.859,2.028V0h1V-4.173a2.455,2.455,0,0,0-2.574-2.691,2.545,2.545,0,0,0-2.3,1.313v-1.17h-1ZM63.3.143a2.945,2.945,0,0,0,2.431-1.157V0h.962V-4.108A2.653,2.653,0,0,0,66-6.071a2.949,2.949,0,0,0-2.171-.741,5.55,5.55,0,0,0-2.444.559l.3.819a4.68,4.68,0,0,1,2.041-.494c1.261,0,2,.624,2,1.833v.234a7.136,7.136,0,0,0-2.067-.286c-1.7,0-2.873.754-2.873,2.171v.026A2.264,2.264,0,0,0,63.3.143Zm.195-.793c-.91,0-1.69-.494-1.69-1.339v-.026c0-.845.7-1.391,1.963-1.391a7.011,7.011,0,0,1,1.976.286v.65A2.032,2.032,0,0,1,63.492-.65Zm5.33.65h1V-3.848a1.978,1.978,0,0,1,2.015-2.106A1.791,1.791,0,0,1,73.7-3.926V0h1V-4.173a2.455,2.455,0,0,0-2.574-2.691,2.545,2.545,0,0,0-2.3,1.313v-1.17h-1ZM79.651.143a3.022,3.022,0,0,0,2.574-1.5V0h1V-9.49h-1v4.056a3.032,3.032,0,0,0-2.574-1.43,3.3,3.3,0,0,0-3.211,3.5v.026A3.278,3.278,0,0,0,79.651.143Zm.182-.9a2.428,2.428,0,0,1-2.366-2.6V-3.38a2.372,2.372,0,0,1,2.366-2.587A2.5,2.5,0,0,1,82.264-3.38v.026A2.51,2.51,0,0,1,79.833-.754ZM88.751,0H89.8l1.079-2.4h4.953L96.9,0h1.105L93.86-9.165H92.9Zm2.535-3.341,2.08-4.628,2.067,4.628ZM99.632,0h1V-3.848a1.978,1.978,0,0,1,2.015-2.106,1.791,1.791,0,0,1,1.859,2.028V0h1V-4.173a2.455,2.455,0,0,0-2.574-2.691,2.545,2.545,0,0,0-2.3,1.313v-1.17h-1Zm10.01.143a2.945,2.945,0,0,0,2.431-1.157V0h.962V-4.108a2.653,2.653,0,0,0-.689-1.963,2.949,2.949,0,0,0-2.171-.741,5.55,5.55,0,0,0-2.444.559l.3.819a4.68,4.68,0,0,1,2.041-.494c1.261,0,2,.624,2,1.833v.234a7.136,7.136,0,0,0-2.067-.286c-1.7,0-2.873.754-2.873,2.171v.026A2.264,2.264,0,0,0,109.642.143Zm.195-.793c-.91,0-1.69-.494-1.69-1.339v-.026c0-.845.7-1.391,1.963-1.391a7.011,7.011,0,0,1,1.976.286v.65A2.032,2.032,0,0,1,109.837-.65Zm5.421.65h1V-9.49h-1Zm6.2-1.118-2.444-5.6h-1.1l3.055,6.7c-.4.949-.78,1.261-1.378,1.261a2.1,2.1,0,0,1-1.053-.247l-.338.793a3.054,3.054,0,0,0,1.43.338c1.014,0,1.664-.507,2.236-1.9l2.821-6.942h-1.066ZM128.518.117a2.518,2.518,0,0,0,1.209-.286v-.858a2.1,2.1,0,0,1-.975.234.994.994,0,0,1-1.131-1.118V-5.837h2.132v-.884h-2.132V-8.749h-1v2.028h-.936v.884h.936v4.056A1.711,1.711,0,0,0,128.518.117Zm3.029-8.307h1.144V-9.3h-1.144ZM131.612,0h1V-6.721h-1Zm6.357.156a3.463,3.463,0,0,0,2.743-1.3l-.637-.6a2.773,2.773,0,0,1-2.054,1,2.511,2.511,0,0,1-2.47-2.613V-3.38a2.48,2.48,0,0,1,2.4-2.6A2.714,2.714,0,0,1,140-4.966l.663-.7a3.466,3.466,0,0,0-2.691-1.2,3.465,3.465,0,0,0-3.445,3.51v.026A3.451,3.451,0,0,0,137.969.156ZM144.586.13a2.117,2.117,0,0,0,2.392-2.015v-.026c0-1.209-1.118-1.612-2.158-1.924-.9-.273-1.729-.52-1.729-1.157v-.026c0-.559.507-.975,1.3-.975a3.8,3.8,0,0,1,1.989.65l.455-.754a4.6,4.6,0,0,0-2.418-.741,2.034,2.034,0,0,0-2.288,1.924v.026c0,1.235,1.17,1.6,2.223,1.9.884.247,1.677.507,1.677,1.183v.026c0,.65-.585,1.066-1.391,1.066a3.929,3.929,0,0,1-2.327-.858l-.507.715A4.623,4.623,0,0,0,144.586.13Z" transform="translate(316.5 -24.988)" fill="#818e8e"/>
    <path id="Path_7374" data-name="Path 7374" d="M-118.112.384a11.813,11.813,0,0,0,8.9-3.9l-1.12-1.088c-2.272,2.24-4.48,3.488-7.712,3.488-5.344,0-9.472-4.416-9.472-10.08v-.064c0-5.632,4.064-10.016,9.44-10.016a10.276,10.276,0,0,1,7.552,3.3l1.184-1.216a11.814,11.814,0,0,0-8.7-3.584,11.259,11.259,0,0,0-11.2,11.584v.064C-129.248-4.7-124.512.384-118.112.384ZM-104.768,0h1.568V-23.36h-1.568Zm14.976.384A8.432,8.432,0,0,0-81.376-8.16v-.064a8.344,8.344,0,0,0-8.352-8.48A8.432,8.432,0,0,0-98.144-8.16V-8.1A8.344,8.344,0,0,0-89.792.384Zm.064-1.472a6.843,6.843,0,0,1-6.72-7.072v-.064a6.733,6.733,0,0,1,6.656-7.008,6.843,6.843,0,0,1,6.72,7.072V-8.1A6.733,6.733,0,0,1-89.728-1.088ZM-70.336.384A6.39,6.39,0,0,0-64.448-3.04V0h1.568V-16.32h-1.568v9.44a5.6,5.6,0,0,1-5.664,5.824c-3.3,0-5.184-2.208-5.184-5.568v-9.7h-1.568v9.984C-76.864-2.432-74.464.384-70.336.384Zm20.288,0c3.232,0,5.312-1.888,6.72-4.032V0h1.568V-23.36h-1.568V-12.8a7.85,7.85,0,0,0-6.72-3.9A8.163,8.163,0,0,0-57.984-8.16V-8.1A8.1,8.1,0,0,0-50.048.384Zm.16-1.5c-3.424,0-6.4-2.752-6.4-7.04v-.064c0-4.384,2.848-6.976,6.4-6.976a6.814,6.814,0,0,1,6.656,7.008v.064A6.835,6.835,0,0,1-49.888-1.12Zm13.344-7.488h8.576V-10.4h-8.576ZM-22.752,0h1.568V-9.408c0-3.3,2.3-5.856,5.216-5.856s4.768,2.08,4.768,5.472V0h1.568V-9.5c0-3.648,2.4-5.76,5.152-5.76,3.008,0,4.832,2.048,4.832,5.568V0H1.92V-9.888c0-4.1-2.4-6.816-6.272-6.816a6.482,6.482,0,0,0-5.888,3.52,5.857,5.857,0,0,0-5.5-3.52,6.01,6.01,0,0,0-5.44,3.3V-16.32h-1.568ZM12.64.384a7.423,7.423,0,0,0,6.24-3.1V0h1.536V-10.176a6.2,6.2,0,0,0-1.664-4.608A7.051,7.051,0,0,0,13.6-16.576a13.114,13.114,0,0,0-5.792,1.408l.576,1.376A10.935,10.935,0,0,1,13.5-15.1c3.36,0,5.376,1.7,5.376,4.992v.7a19.635,19.635,0,0,0-5.408-.7c-4.224,0-7.136,1.92-7.136,5.312v.064C6.336-1.344,9.6.384,12.64.384Zm.1-1.472C10.24-1.088,8-2.464,8-4.832V-4.9C8-7.168,9.92-8.7,13.376-8.7a21.635,21.635,0,0,1,5.536.736v1.856C18.912-3.136,16.064-1.088,12.736-1.088ZM26.048,0h1.568V-9.44a5.6,5.6,0,0,1,5.664-5.824c3.3,0,5.184,2.208,5.184,5.568V0h1.568V-9.984c0-3.9-2.4-6.72-6.528-6.72a6.39,6.39,0,0,0-5.888,3.424v-3.04H26.048ZM50.624.384a7.423,7.423,0,0,0,6.24-3.1V0H58.4V-10.176a6.2,6.2,0,0,0-1.664-4.608,7.051,7.051,0,0,0-5.152-1.792,13.114,13.114,0,0,0-5.792,1.408l.576,1.376a10.935,10.935,0,0,1,5.12-1.312c3.36,0,5.376,1.7,5.376,4.992v.7a19.635,19.635,0,0,0-5.408-.7c-4.224,0-7.136,1.92-7.136,5.312v.064C44.32-1.344,47.584.384,50.624.384Zm.1-1.472c-2.5,0-4.736-1.376-4.736-3.744V-4.9c0-2.272,1.92-3.808,5.376-3.808a21.635,21.635,0,0,1,5.536.736v1.856C56.9-3.136,54.048-1.088,50.72-1.088ZM71.2,5.184a8.261,8.261,0,0,0,5.92-2.176A7.558,7.558,0,0,0,79.2-2.528V-16.32H77.632v3.264A8.114,8.114,0,0,0,70.816-16.7a7.763,7.763,0,0,0-7.84,7.744V-8.9a7.728,7.728,0,0,0,7.84,7.68,8.117,8.117,0,0,0,6.816-3.776v2.368c0,4.192-2.656,6.336-6.4,6.336a10.662,10.662,0,0,1-6.592-2.3l-.928,1.28A12.325,12.325,0,0,0,71.2,5.184Zm-.224-7.9a6.2,6.2,0,0,1-6.3-6.24v-.064a6.032,6.032,0,0,1,6.3-6.176c3.392,0,6.752,2.432,6.752,6.208v.064C77.728-5.216,74.368-2.72,70.976-2.72ZM92.032.384a8.579,8.579,0,0,0,6.752-3.072L97.7-3.648a7.33,7.33,0,0,1-5.6,2.56c-3.2,0-6.112-2.368-6.4-6.432H99.232a4.08,4.08,0,0,0,.032-.64c0-4.832-2.912-8.544-7.488-8.544-4.416,0-7.744,3.776-7.744,8.512v.064C84.032-3.04,87.744.384,92.032.384ZM85.7-8.928c.288-3.616,2.784-6.336,6.016-6.336,3.744,0,5.632,3.04,5.856,6.336ZM110.72.384c3.232,0,5.312-1.888,6.72-4.032V0h1.568V-23.36H117.44V-12.8a7.85,7.85,0,0,0-6.72-3.9,8.163,8.163,0,0,0-7.936,8.544V-8.1A8.1,8.1,0,0,0,110.72.384Zm.16-1.5c-3.424,0-6.4-2.752-6.4-7.04v-.064c0-4.384,2.848-6.976,6.4-6.976a6.814,6.814,0,0,1,6.656,7.008v.064A6.835,6.835,0,0,1,110.88-1.12ZM-226.544,60h14.816V58.464H-224.88V37.6h-1.664Zm26.368.384a8.432,8.432,0,0,0,8.416-8.544v-.064a8.344,8.344,0,0,0-8.352-8.48,8.432,8.432,0,0,0-8.416,8.544V51.9A8.344,8.344,0,0,0-200.176,60.384Zm.064-1.472a6.843,6.843,0,0,1-6.72-7.072v-.064a6.733,6.733,0,0,1,6.656-7.008,6.843,6.843,0,0,1,6.72,7.072V51.9A6.733,6.733,0,0,1-200.112,58.912Zm20.384,1.472a8.4,8.4,0,0,0,6.656-3.232l-1.088-.96a7.293,7.293,0,0,1-5.472,2.72,6.863,6.863,0,0,1-6.72-7.072v-.064a6.743,6.743,0,0,1,6.592-7.008,7.354,7.354,0,0,1,5.44,2.688l1.12-1.152a8.566,8.566,0,0,0-6.528-3.008,8.475,8.475,0,0,0-8.32,8.544V51.9A8.4,8.4,0,0,0-179.728,60.384Zm16.032,0a7.423,7.423,0,0,0,6.24-3.1V60h1.536V49.824a6.2,6.2,0,0,0-1.664-4.608,7.051,7.051,0,0,0-5.152-1.792,13.114,13.114,0,0,0-5.792,1.408l.576,1.376a10.935,10.935,0,0,1,5.12-1.312c3.36,0,5.376,1.7,5.376,4.992v.7a19.635,19.635,0,0,0-5.408-.7c-4.224,0-7.136,1.92-7.136,5.312v.064C-170,58.656-166.736,60.384-163.7,60.384Zm.1-1.472c-2.5,0-4.736-1.376-4.736-3.744V55.1c0-2.272,1.92-3.808,5.376-3.808a21.635,21.635,0,0,1,5.536.736v1.856C-157.424,56.864-160.272,58.912-163.6,58.912Zm18.592,1.376a5.992,5.992,0,0,0,2.656-.576V58.24a5.467,5.467,0,0,1-2.4.576c-1.888,0-3.264-.832-3.264-3.168V45.12h5.728V43.68h-5.728V38.464h-1.568V43.68h-2.368v1.44h2.368V55.808C-149.584,58.912-147.536,60.288-145.008,60.288Zm7.392-20.864h1.952V37.28h-1.952ZM-137.424,60h1.568V43.68h-1.568Zm14.976.384a8.432,8.432,0,0,0,8.416-8.544v-.064a8.344,8.344,0,0,0-8.352-8.48A8.432,8.432,0,0,0-130.8,51.84V51.9A8.344,8.344,0,0,0-122.448,60.384Zm.064-1.472a6.843,6.843,0,0,1-6.72-7.072v-.064a6.733,6.733,0,0,1,6.656-7.008,6.843,6.843,0,0,1,6.72,7.072V51.9A6.733,6.733,0,0,1-122.384,58.912ZM-109.2,60h1.568V50.56a5.6,5.6,0,0,1,5.664-5.824c3.3,0,5.184,2.208,5.184,5.568V60h1.568V50.016c0-3.9-2.4-6.72-6.528-6.72a6.39,6.39,0,0,0-5.888,3.424V43.68H-109.2Zm34.5.32c3.136,0,5.632-1.856,5.632-4.768v-.064c0-2.88-2.752-3.84-5.376-4.576-2.336-.672-4.544-1.344-4.544-3.168V47.68c0-1.632,1.472-2.848,3.712-2.848a9.373,9.373,0,0,1,5.024,1.632l.832-1.312a11.018,11.018,0,0,0-5.792-1.792c-3.168,0-5.376,1.888-5.376,4.512v.064c0,2.912,2.944,3.712,5.6,4.48,2.272.64,4.32,1.344,4.32,3.264v.064c0,1.888-1.728,3.1-3.936,3.1A9.574,9.574,0,0,1-80.464,56.7l-.928,1.248A11.176,11.176,0,0,0-74.7,60.32Zm17.5.064a8.579,8.579,0,0,0,6.752-3.072l-1.088-.96a7.33,7.33,0,0,1-5.6,2.56c-3.2,0-6.112-2.368-6.4-6.432H-50a4.08,4.08,0,0,0,.032-.64c0-4.832-2.912-8.544-7.488-8.544-4.416,0-7.744,3.776-7.744,8.512v.064C-65.2,56.96-61.488,60.384-57.2,60.384Zm-6.336-9.312c.288-3.616,2.784-6.336,6.016-6.336,3.744,0,5.632,3.04,5.856,6.336ZM-45.392,60h1.568V53.312c0-5.312,3.3-8.16,7.072-8.16h.16V43.424a7.716,7.716,0,0,0-7.232,4.9V43.68h-1.568Zm18.464.128h1.344l7.328-16.448h-1.76l-6.24,14.56-6.176-14.56h-1.824Zm12.992-20.7h1.952V37.28h-1.952ZM-13.744,60h1.568V43.68h-1.568ZM1.2,60.384a8.4,8.4,0,0,0,6.656-3.232l-1.088-.96A7.293,7.293,0,0,1,1.3,58.912a6.863,6.863,0,0,1-6.72-7.072v-.064a6.743,6.743,0,0,1,6.592-7.008,7.354,7.354,0,0,1,5.44,2.688L7.728,46.3A8.566,8.566,0,0,0,1.2,43.3,8.475,8.475,0,0,0-7.12,51.84V51.9A8.4,8.4,0,0,0,1.2,60.384Zm17.472,0a8.579,8.579,0,0,0,6.752-3.072l-1.088-.96a7.33,7.33,0,0,1-5.6,2.56c-3.2,0-6.112-2.368-6.4-6.432H25.872a4.08,4.08,0,0,0,.032-.64c0-4.832-2.912-8.544-7.488-8.544-4.416,0-7.744,3.776-7.744,8.512v.064C10.672,56.96,14.384,60.384,18.672,60.384Zm-6.336-9.312c.288-3.616,2.784-6.336,6.016-6.336,3.744,0,5.632,3.04,5.856,6.336ZM35.76,60.32c3.136,0,5.632-1.856,5.632-4.768v-.064c0-2.88-2.752-3.84-5.376-4.576-2.336-.672-4.544-1.344-4.544-3.168V47.68c0-1.632,1.472-2.848,3.712-2.848a9.373,9.373,0,0,1,5.024,1.632l.832-1.312a11.018,11.018,0,0,0-5.792-1.792c-3.168,0-5.376,1.888-5.376,4.512v.064c0,2.912,2.944,3.712,5.6,4.48,2.272.64,4.32,1.344,4.32,3.264v.064c0,1.888-1.728,3.1-3.936,3.1A9.574,9.574,0,0,1,30,56.7l-.928,1.248A11.176,11.176,0,0,0,35.76,60.32Zm37.152.128,1.312-1.088L70.1,55.1a31.282,31.282,0,0,0,3.328-5.952l-1.5-.608a28.933,28.933,0,0,1-2.912,5.44L63.12,47.936c3.424-1.184,5.5-3.008,5.5-5.792V42.08a4.971,4.971,0,0,0-5.152-4.864c-3.264,0-5.6,2.208-5.6,5.088v.064c0,1.856.8,3.232,2.5,5.12-3.648,1.344-5.792,3.552-5.792,6.56v.064c0,3.648,2.944,6.208,6.88,6.208,3.008,0,5.472-1.408,7.584-3.872ZM62.128,46.912c-1.984-2.112-2.592-3.2-2.592-4.608V42.24a3.657,3.657,0,0,1,3.872-3.616,3.478,3.478,0,0,1,3.552,3.52v.064C66.96,44.32,65.328,45.888,62.128,46.912Zm-.64,11.968a4.916,4.916,0,0,1-5.248-4.832v-.064c0-2.176,1.568-4.256,5.12-5.472l6.624,6.848C66.128,57.536,63.984,58.88,61.488,58.88ZM86.288,60h1.728l2.848-6.272H104.08L106.928,60h1.824L98.32,37.44h-1.6Zm5.28-7.776,5.92-12.96,5.888,12.96ZM113.136,60H114.7V50.56a5.6,5.6,0,0,1,5.664-5.824c3.3,0,5.184,2.208,5.184,5.568V60h1.568V50.016c0-3.9-2.4-6.72-6.528-6.72A6.39,6.39,0,0,0,114.7,46.72V43.68h-1.568Zm24.576.384a7.423,7.423,0,0,0,6.24-3.1V60h1.536V49.824a6.2,6.2,0,0,0-1.664-4.608,7.051,7.051,0,0,0-5.152-1.792,13.114,13.114,0,0,0-5.792,1.408l.576,1.376a10.935,10.935,0,0,1,5.12-1.312c3.36,0,5.376,1.7,5.376,4.992v.7a19.635,19.635,0,0,0-5.408-.7c-4.224,0-7.136,1.92-7.136,5.312v.064C131.408,58.656,134.672,60.384,137.712,60.384Zm.1-1.472c-2.5,0-4.736-1.376-4.736-3.744V55.1c0-2.272,1.92-3.808,5.376-3.808a21.635,21.635,0,0,1,5.536.736v1.856C143.984,56.864,141.136,58.912,137.808,58.912ZM151.344,60h1.568V36.64h-1.568Zm14.624-1.728L159.184,43.68H157.36L165.2,59.9c-1.216,2.848-2.336,3.84-4.032,3.84a5.687,5.687,0,0,1-2.784-.608l-.544,1.376a7.343,7.343,0,0,0,3.232.7c2.336,0,4-1.216,5.44-4.64l7.072-16.9h-1.728Zm17.376,2.016A5.992,5.992,0,0,0,186,59.712V58.24a5.467,5.467,0,0,1-2.4.576c-1.888,0-3.264-.832-3.264-3.168V45.12h5.728V43.68h-5.728V38.464h-1.568V43.68H176.4v1.44h2.368V55.808C178.768,58.912,180.816,60.288,183.344,60.288Zm7.392-20.864h1.952V37.28h-1.952ZM190.928,60H192.5V43.68h-1.568Zm14.944.384a8.4,8.4,0,0,0,6.656-3.232l-1.088-.96a7.293,7.293,0,0,1-5.472,2.72,6.863,6.863,0,0,1-6.72-7.072v-.064a6.743,6.743,0,0,1,6.592-7.008,7.354,7.354,0,0,1,5.44,2.688L212.4,46.3a8.566,8.566,0,0,0-6.528-3.008,8.475,8.475,0,0,0-8.32,8.544V51.9A8.4,8.4,0,0,0,205.872,60.384Zm16.352-.064c3.136,0,5.632-1.856,5.632-4.768v-.064c0-2.88-2.752-3.84-5.376-4.576-2.336-.672-4.544-1.344-4.544-3.168V47.68c0-1.632,1.472-2.848,3.712-2.848a9.373,9.373,0,0,1,5.024,1.632l.832-1.312a11.018,11.018,0,0,0-5.792-1.792c-3.168,0-5.376,1.888-5.376,4.512v.064c0,2.912,2.944,3.712,5.6,4.48,2.272.64,4.32,1.344,4.32,3.264v.064c0,1.888-1.728,3.1-3.936,3.1a9.574,9.574,0,0,1-5.856-2.144l-.928,1.248A11.176,11.176,0,0,0,222.224,60.32Z" transform="translate(401.5 392.012)" fill="#070707"/>
    <path id="Path_7368" data-name="Path 7368" d="M-176.463,63H-155V59.976h-18.144V49.686H-157.1V46.662h-16.044V36.624h17.934V33.6h-21.252Zm29.652-21.714h-3.7l8.148,10.668L-150.843,63h3.612l6.762-8.946,6.72,8.946h3.738l-8.568-11.088,8.232-10.626h-3.612l-6.468,8.484ZM-117.5,63.378a8.134,8.134,0,0,0,3.906-.924V59.682a6.8,6.8,0,0,1-3.15.756c-2.184,0-3.654-.966-3.654-3.612V44.142h6.888V41.286h-6.888V34.734h-3.234v6.552h-3.024v2.856h3.024v13.1C-123.627,61.656-120.981,63.378-117.5,63.378Zm9.7-.378h3.234V54.348c0-6.552,3.864-9.954,8.61-9.954h.252V40.908c-4.116-.168-7.266,2.436-8.862,6.048v-5.67h-3.234Zm25.578.5a11.208,11.208,0,0,0,8.946-4.074l-2.016-1.806a8.986,8.986,0,0,1-6.846,3.066c-3.864,0-7.182-2.646-7.644-7.35h17.22a8.435,8.435,0,0,0,.042-1.05c0-6.342-3.7-11.466-10.122-11.466-6.006,0-10.416,5.04-10.416,11.3v.084C-93.051,58.926-88.179,63.5-82.215,63.5Zm-7.56-12.558c.42-4.242,3.276-7.392,7.056-7.392,4.326,0,6.594,3.444,6.93,7.392ZM-66.843,63h3.234V50.61c0-3.99,2.6-6.846,6.048-6.846s5.586,2.394,5.586,6.468V63h3.234V50.484c0-4.284,2.688-6.72,5.964-6.72,3.528,0,5.628,2.352,5.628,6.552V63h3.234V49.56c0-5.376-3.066-8.736-8.064-8.736a8.654,8.654,0,0,0-7.644,4.326A7.376,7.376,0,0,0-56.6,40.824c-3.654,0-5.586,1.974-7.014,4.116V41.286h-3.234Zm49.434.5A11.208,11.208,0,0,0-8.463,59.43l-2.016-1.806a8.986,8.986,0,0,1-6.846,3.066c-3.864,0-7.182-2.646-7.644-7.35h17.22a8.435,8.435,0,0,0,.042-1.05c0-6.342-3.7-11.466-10.122-11.466-6.006,0-10.416,5.04-10.416,11.3v.084C-28.245,58.926-23.373,63.5-17.409,63.5Zm-7.56-12.558c.42-4.242,3.276-7.392,7.056-7.392,4.326,0,6.594,3.444,6.93,7.392ZM-2.121,63H19V57.12H4.347V33.6H-2.121Zm35.952.5c7.014,0,12.222-5.25,12.222-11.718V51.7c0-6.468-5.166-11.634-12.138-11.634-7.014,0-12.222,5.25-12.222,11.718v.084C21.693,58.338,26.859,63.5,33.831,63.5Zm.084-5.5a5.981,5.981,0,0,1-5.922-6.216V51.7c0-3.318,2.184-6.132,5.838-6.132a5.981,5.981,0,0,1,5.922,6.216v.084C39.753,55.188,37.569,58,33.915,58ZM61.3,63.5a11.336,11.336,0,0,0,9.2-4.116l-3.738-3.78A7.131,7.131,0,0,1,61.593,58c-3.486,0-5.712-2.772-5.712-6.216V51.7c0-3.318,2.268-6.132,5.46-6.132a6.576,6.576,0,0,1,5.124,2.478l3.906-4.2c-2.1-2.352-4.746-3.78-8.988-3.78a11.558,11.558,0,0,0-11.8,11.718v.084A11.5,11.5,0,0,0,61.3,63.5Zm19.74-.084a8.656,8.656,0,0,0,6.8-2.856V63h6.174V49.938c0-3.024-.756-5.5-2.436-7.182-1.6-1.6-4.116-2.52-7.6-2.52a19.862,19.862,0,0,0-8.736,1.806l1.6,4.872A16.56,16.56,0,0,1,83.055,45.7c3.192,0,4.83,1.47,4.83,4.116v.378a16,16,0,0,0-5.5-.924c-5.334,0-9.072,2.268-9.072,7.182v.084C73.311,60.984,76.8,63.42,81.039,63.42Zm1.932-4.41c-2.058,0-3.486-1.008-3.486-2.73V56.2c0-2.016,1.68-3.108,4.41-3.108a9.9,9.9,0,0,1,4.074.84v1.134C87.969,57.372,85.953,59.01,82.971,59.01Zm23.94,4.368a9.412,9.412,0,0,0,5.04-1.3V56.952a6.493,6.493,0,0,1-3.15.8c-1.428,0-2.058-.714-2.058-2.184V45.948h5.292v-5.46h-5.292V34.734h-6.384v5.754H97.671v5.46h2.688V56.616C100.359,61.824,103.005,63.378,106.911,63.378Zm9.954-25.368h6.72V32.34h-6.72ZM117.033,63h6.384V40.488h-6.384Zm23.436.5c7.014,0,12.222-5.25,12.222-11.718V51.7c0-6.468-5.166-11.634-12.138-11.634-7.014,0-12.222,5.25-12.222,11.718v.084C128.331,58.338,133.5,63.5,140.469,63.5Zm.084-5.5a5.981,5.981,0,0,1-5.922-6.216V51.7c0-3.318,2.184-6.132,5.838-6.132a5.981,5.981,0,0,1,5.922,6.216v.084C146.391,55.188,144.207,58,140.553,58Zm16.758,5h6.384V50.442c0-3.024,1.554-4.578,3.99-4.578s3.864,1.554,3.864,4.578V63h6.384V48.426c0-5.166-2.814-8.358-7.644-8.358-3.234,0-5.124,1.722-6.594,3.612V40.488h-6.384Z" transform="translate(325.5 -123.988)" fill="#409"/>
    <path id="Path_7369" data-name="Path 7369" d="M2.43,4.988H20.159V1.267H6.591V-5.094H18.467V-8.816H6.591v-6.158h13.4V-18.7H2.43Zm28.318.338c3.722,0,6.631-1.861,6.631-5.616V-.357c0-3.214-2.944-4.4-5.549-5.21-2.1-.677-4.026-1.218-4.026-2.537v-.068c0-1.015.913-1.759,2.5-1.759A10.367,10.367,0,0,1,35.35-8.241l1.624-2.91a12.384,12.384,0,0,0-6.564-2.03c-3.552,0-6.361,2.064-6.361,5.447v.068c0,3.417,2.944,4.5,5.582,5.244,2.1.643,3.992,1.116,3.992,2.5V.15c0,1.184-1.015,1.928-2.774,1.928A10.107,10.107,0,0,1,25-.121L23.17,2.654A12.549,12.549,0,0,0,30.748,5.327Zm16.612,0c3.722,0,6.631-1.861,6.631-5.616V-.357c0-3.214-2.944-4.4-5.549-5.21-2.1-.677-4.026-1.218-4.026-2.537v-.068c0-1.015.914-1.759,2.5-1.759a10.367,10.367,0,0,1,5.041,1.692l1.624-2.91a12.384,12.384,0,0,0-6.564-2.03c-3.552,0-6.361,2.064-6.361,5.447v.068c0,3.417,2.944,4.5,5.583,5.244,2.1.643,3.992,1.116,3.992,2.5V.15c0,1.184-1.015,1.928-2.774,1.928a10.107,10.107,0,0,1-5.853-2.2L39.782,2.654A12.549,12.549,0,0,0,47.361,5.327Zm19.014.068a9.036,9.036,0,0,0,7.308-3.349l-2.4-2.131a6.487,6.487,0,0,1-4.838,2.131A4.987,4.987,0,0,1,61.3-2.489H74.427c.034-.406.068-.778.068-1.15,0-5.143-2.876-9.609-8.56-9.609-5.109,0-8.729,4.2-8.729,9.3v.068A8.913,8.913,0,0,0,66.375,5.394ZM61.266-5.2C61.638-7.97,63.4-9.9,65.9-9.9c2.707,0,4.263,2.064,4.534,4.7ZM78.623,4.988h4.094V-5.094c0-2.774,1.658-4.432,4.026-4.432,2.436,0,3.823,1.59,3.823,4.364V4.988H94.66v-11.4c0-4.128-2.335-6.834-6.361-6.834a6.475,6.475,0,0,0-5.583,3.113v-2.74H78.623Zm26.965.3a7.079,7.079,0,0,0,3.688-.913V1.03a5.5,5.5,0,0,1-2.537.609,1.949,1.949,0,0,1-2.2-2.233V-9.357h4.8v-3.519h-4.8v-4.906h-4.094v4.906H98.178v3.519h2.267V.049C100.445,3.973,102.577,5.293,105.588,5.293Zm7.985-20.909h4.4v-3.891h-4.4Zm.169,20.6h4.094V-12.876h-4.094Zm14.582.372a7.26,7.26,0,0,0,5.819-2.605V4.988h3.992V-5.6a7.413,7.413,0,0,0-1.928-5.515c-1.252-1.286-3.248-2-5.921-2a15.243,15.243,0,0,0-6.733,1.455l1.083,3.214a12.437,12.437,0,0,1,5.109-1.116c2.876,0,4.432,1.353,4.432,3.891v.44a14.924,14.924,0,0,0-4.8-.744C125.008-5.974,122-4.079,122-.222v.068C122,3.432,124.974,5.36,128.324,5.36Zm1.15-2.977c-1.962,0-3.485-.981-3.485-2.707V-.391c0-1.861,1.556-2.977,4.2-2.977a11.349,11.349,0,0,1,4.06.711V-1.44C134.245.827,132.181,2.383,129.474,2.383Zm13.8,2.605h4.094v-24.7h-4.094Zm15.563.338c3.722,0,6.631-1.861,6.631-5.616V-.357c0-3.214-2.943-4.4-5.549-5.21-2.1-.677-4.026-1.218-4.026-2.537v-.068c0-1.015.913-1.759,2.5-1.759a10.367,10.367,0,0,1,5.041,1.692l1.624-2.91a12.384,12.384,0,0,0-6.564-2.03c-3.553,0-6.361,2.064-6.361,5.447v.068c0,3.417,2.943,4.5,5.583,5.244,2.1.643,3.992,1.116,3.992,2.5V.15c0,1.184-1.015,1.928-2.774,1.928a10.107,10.107,0,0,1-5.853-2.2l-1.827,2.774A12.549,12.549,0,0,0,158.841,5.327Z" transform="translate(517.5 -66.059)" fill="#666"/>
    <g id="image_404" data-name="image 404" transform="translate(251.5 54.011)">
      <rect id="Rectangle_1" data-name="Rectangle 1" width="185" height="231" rx="16" transform="translate(65.049)" fill="#8774d4"/>
      <path id="Path_7023" data-name="Path 7023" d="M0,0H159V144H0Z" transform="translate(79.168 35.001)" fill="none"/>
      <rect id="Rectangle_3" data-name="Rectangle 3" width="87" height="10" rx="5" transform="translate(115.049 12)" fill="#fff"/>
      <circle id="Ellipse_1" data-name="Ellipse 1" cx="13.5" cy="13.5" r="13.5" transform="translate(143.049 192)" fill="#fff"/>
      <path id="Path_1" data-name="Path 1" d="M298.448,216.19c0,81.356-66.81,147.308-149.224,147.308a152.7,152.7,0,0,1-23.882-1.876C54.357,350.423,0,289.573,0,216.19,0,134.834,298.448,176.976,298.448,216.19Z" transform="translate(0 -95.679)" fill="#fff" opacity="0.38"/>
      <g id="Icons" transform="translate(111.166 58.999)">
        <g id="new-icons" transform="translate(-292 -8187)">
          <g id="icon-userlocation" transform="translate(292 8187)">
            <g id="Group" transform="translate(2 2)">
              <path id="Shape" d="M29.877,60.062C12.924,62.376.855,68.2.855,75.052c0,8.88,20.213,16.08,45.147,16.08s45.147-7.2,45.147-16.08c0-6.783-11.833-12.558-28.519-14.917" fill="none" stroke="#fff" stroke-linejoin="round" stroke-width="4"/>
              <path id="Shape-2" data-name="Shape" d="M46,79.1V49.418" fill="none" stroke="#fff" stroke-linejoin="round" stroke-width="4"/>
              <path id="Shape-3" data-name="Shape" d="M50.938,5.9c0,2.725-2.209,6.531-4.935,6.531S41.068,8.623,41.068,5.9a4.935,4.935,0,1,1,9.87,0Z" fill="none" stroke="#fff" stroke-linejoin="round" stroke-width="4"/>
              <path id="Shape-4" data-name="Shape" d="M39.617,79.1,37.667,44c-.029-.709-2.306.214-2.331-.458-.928-24.827,1.136-26.406,1.37-26.6.274-.077,2.527-.138,3.2-.18a2.255,2.255,0,0,1,2.115,1.311c1.484,2.878,6.48,2.878,7.964,0A2.255,2.255,0,0,1,52.1,16.763c.674.042,2.926.1,3.2.18.233.2,2.3,1.774,1.37,26.6-.025.672-2.3-.251-2.331.458L52.388,79.1" fill="none" stroke="#fff" stroke-linejoin="round" stroke-width="4"/>
            </g>
            <rect id="Rectangle-path" width="96" height="96" transform="translate(0.002 0.002)" fill="none"/>
          </g>
        </g>
      </g>
    </g>
    <path id="Path_7370" data-name="Path 7370" d="M1.455,0H3.3V-10.5H1.455ZM5.9,0H7.71V-4.47A1.762,1.762,0,0,1,9.5-6.435c1.08,0,1.695.7,1.695,1.935V0h1.815V-5.055a2.715,2.715,0,0,0-2.82-3.03A2.871,2.871,0,0,0,7.71-6.705V-7.92H5.9Zm12.57.165a3.17,3.17,0,0,0,2.7-1.485V0H22.98V-10.95H21.165v4.26a3.24,3.24,0,0,0-2.7-1.4,3.78,3.78,0,0,0-3.675,4.11v.03A3.8,3.8,0,0,0,18.465.165ZM18.9-1.41a2.356,2.356,0,0,1-2.28-2.535v-.03A2.322,2.322,0,0,1,18.9-6.51a2.377,2.377,0,0,1,2.295,2.535v.03A2.386,2.386,0,0,1,18.9-1.41ZM29.025.18A4.141,4.141,0,0,0,33.27-3.945v-.03a4.1,4.1,0,0,0-4.215-4.11,4.14,4.14,0,0,0-4.23,4.14v.03A4.1,4.1,0,0,0,29.025.18Zm.03-1.59A2.441,2.441,0,0,1,26.64-3.945v-.03A2.377,2.377,0,0,1,29.025-6.5a2.448,2.448,0,0,1,2.43,2.55v.03A2.376,2.376,0,0,1,29.055-1.41ZM38.88.18a4.141,4.141,0,0,0,4.245-4.125v-.03a4.1,4.1,0,0,0-4.215-4.11,4.14,4.14,0,0,0-4.23,4.14v.03A4.1,4.1,0,0,0,38.88.18Zm.03-1.59a2.441,2.441,0,0,1-2.415-2.535v-.03A2.377,2.377,0,0,1,38.88-6.5a2.448,2.448,0,0,1,2.43,2.55v.03A2.376,2.376,0,0,1,38.91-1.41ZM44.97,0h1.815V-3.015c0-2.1,1.11-3.135,2.7-3.135h.1V-8.07a2.808,2.808,0,0,0-2.8,1.935V-7.92H44.97Zm10.8,0h1.815V-10.95H55.77Zm7.95.18a4.141,4.141,0,0,0,4.245-4.125v-.03a4.1,4.1,0,0,0-4.215-4.11,4.14,4.14,0,0,0-4.23,4.14v.03A4.1,4.1,0,0,0,63.72.18Zm.03-1.59a2.441,2.441,0,0,1-2.415-2.535v-.03A2.377,2.377,0,0,1,63.72-6.5a2.448,2.448,0,0,1,2.43,2.55v.03A2.376,2.376,0,0,1,63.75-1.41ZM73.47.18a4.007,4.007,0,0,0,3.24-1.485l-1.1-1.08a2.772,2.772,0,0,1-2.055.975,2.4,2.4,0,0,1-2.37-2.535v-.03a2.389,2.389,0,0,1,2.3-2.52,2.658,2.658,0,0,1,2.04.99l1.14-1.215A4,4,0,0,0,73.5-8.085a4.088,4.088,0,0,0-4.125,4.14v.03A4.044,4.044,0,0,0,73.47.18ZM80.655.165A3.219,3.219,0,0,0,83.235-.99V0H85V-4.7A3.287,3.287,0,0,0,84.15-7.14a3.549,3.549,0,0,0-2.625-.885,6.758,6.758,0,0,0-2.985.645l.48,1.425a5.514,5.514,0,0,1,2.265-.495c1.275,0,1.965.6,1.965,1.725v.2a6.616,6.616,0,0,0-2.13-.33c-1.935,0-3.27.84-3.27,2.55v.03A2.53,2.53,0,0,0,80.655.165Zm.51-1.32c-.87,0-1.545-.435-1.545-1.2v-.03c0-.825.69-1.32,1.86-1.32a5.032,5.032,0,0,1,1.8.315v.54C83.28-1.845,82.365-1.155,81.165-1.155ZM89.76.135A3.138,3.138,0,0,0,91.395-.27V-1.755a2.44,2.44,0,0,1-1.125.27.864.864,0,0,1-.975-.99V-6.36h2.13V-7.92h-2.13V-10.1H87.48V-7.92h-1v1.56h1v4.17A2.03,2.03,0,0,0,89.76.135Zm3.54-9.27h1.95V-10.86H93.3ZM93.375,0H95.19V-7.92H93.375Zm7.95.18a4.141,4.141,0,0,0,4.245-4.125v-.03a4.1,4.1,0,0,0-4.215-4.11,4.14,4.14,0,0,0-4.23,4.14v.03A4.1,4.1,0,0,0,101.325.18Zm.03-1.59A2.441,2.441,0,0,1,98.94-3.945v-.03a2.377,2.377,0,0,1,2.385-2.52,2.448,2.448,0,0,1,2.43,2.55v.03A2.376,2.376,0,0,1,101.355-1.41ZM107.415,0h1.815V-4.47a1.762,1.762,0,0,1,1.785-1.965c1.08,0,1.695.7,1.695,1.935V0h1.815V-5.055a2.715,2.715,0,0,0-2.82-3.03,2.871,2.871,0,0,0-2.475,1.38V-7.92h-1.815ZM123.93.15c1.65,0,2.94-.825,2.94-2.49v-.03c0-1.425-1.305-1.95-2.46-2.31-.93-.3-1.785-.54-1.785-1.125v-.03c0-.45.4-.78,1.11-.78a4.6,4.6,0,0,1,2.235.75l.72-1.29a5.49,5.49,0,0,0-2.91-.9c-1.575,0-2.82.915-2.82,2.415v.03c0,1.515,1.305,1.995,2.475,2.325.93.285,1.77.5,1.77,1.11v.03c0,.525-.45.855-1.23.855a4.481,4.481,0,0,1-2.6-.975l-.81,1.23A5.564,5.564,0,0,0,123.93.15Zm8.43.03a4.006,4.006,0,0,0,3.24-1.485l-1.065-.945a2.876,2.876,0,0,1-2.145.945,2.211,2.211,0,0,1-2.28-2.01h5.82c.015-.18.03-.345.03-.51,0-2.28-1.275-4.26-3.795-4.26a3.931,3.931,0,0,0-3.87,4.125v.03A3.952,3.952,0,0,0,132.36.18Zm-2.265-4.7A2.143,2.143,0,0,1,132.15-6.6a2.056,2.056,0,0,1,2.01,2.085ZM137.79,0H139.6V-3.015c0-2.1,1.11-3.135,2.7-3.135h.1V-8.07a2.808,2.808,0,0,0-2.8,1.935V-7.92H137.79Zm8.7.06h1.635l3.24-7.98h-1.9L147.315-2.1l-2.13-5.82h-1.95Zm6.45-9.2h1.95V-10.86h-1.95ZM153.015,0h1.815V-7.92h-1.815Zm7.845.18a4.007,4.007,0,0,0,3.24-1.485l-1.095-1.08a2.772,2.772,0,0,1-2.055.975,2.4,2.4,0,0,1-2.37-2.535v-.03a2.389,2.389,0,0,1,2.295-2.52,2.658,2.658,0,0,1,2.04.99l1.14-1.215a4,4,0,0,0-3.165-1.365,4.088,4.088,0,0,0-4.125,4.14v.03A4.044,4.044,0,0,0,160.86.18Zm8.31,0a4.006,4.006,0,0,0,3.24-1.485l-1.065-.945a2.876,2.876,0,0,1-2.145.945,2.211,2.211,0,0,1-2.28-2.01h5.82c.015-.18.03-.345.03-.51,0-2.28-1.275-4.26-3.795-4.26A3.931,3.931,0,0,0,165.1-3.96v.03A3.952,3.952,0,0,0,169.17.18Zm-2.265-4.7A2.143,2.143,0,0,1,168.96-6.6a2.056,2.056,0,0,1,2.01,2.085ZM179.5,0h1.815V-6.36h2.07v-1.5h-2.1V-8.3c0-.825.36-1.2,1.05-1.2A3.189,3.189,0,0,1,183.4-9.3v-1.53a4.856,4.856,0,0,0-1.47-.21,2.4,2.4,0,0,0-1.785.63,2.677,2.677,0,0,0-.645,1.95v.585H178.5V-6.36H179.5Zm8.85.18A4.141,4.141,0,0,0,192.6-3.945v-.03a4.1,4.1,0,0,0-4.215-4.11,4.14,4.14,0,0,0-4.23,4.14v.03A4.1,4.1,0,0,0,188.355.18Zm.03-1.59a2.441,2.441,0,0,1-2.415-2.535v-.03a2.377,2.377,0,0,1,2.385-2.52,2.448,2.448,0,0,1,2.43,2.55v.03A2.376,2.376,0,0,1,188.385-1.41ZM194.445,0h1.815V-3.015c0-2.1,1.11-3.135,2.7-3.135h.1V-8.07a2.808,2.808,0,0,0-2.8,1.935V-7.92h-1.815ZM208.2.075h1.59l2.58-7.545L214.95.075h1.6L220.2-10.5h-1.935L215.76-2.715l-2.58-7.815h-1.56l-2.58,7.815-2.5-7.785h-2Zm13.485-9.21h1.95V-10.86h-1.95ZM221.76,0h1.815V-7.92H221.76Zm3.885-3.705h4.44V-5.49h-4.44ZM232.275,0h1.845V-4.275h5.295v-1.68H234.12V-8.82h5.97V-10.5h-7.815Zm9.66-9.135h1.95V-10.86h-1.95ZM242.01,0h1.815V-7.92H242.01Zm10.965.165a3.219,3.219,0,0,0,2.58-1.155V0h1.77V-4.7a3.286,3.286,0,0,0-.855-2.445,3.549,3.549,0,0,0-2.625-.885,6.758,6.758,0,0,0-2.985.645l.48,1.425A5.514,5.514,0,0,1,253.6-6.45c1.275,0,1.965.6,1.965,1.725v.2a6.616,6.616,0,0,0-2.13-.33c-1.935,0-3.27.84-3.27,2.55v.03A2.53,2.53,0,0,0,252.975.165Zm.51-1.32c-.87,0-1.545-.435-1.545-1.2v-.03c0-.825.69-1.32,1.86-1.32a5.032,5.032,0,0,1,1.8.315v.54C255.6-1.845,254.685-1.155,253.485-1.155ZM259.5,0h1.815V-4.47A1.762,1.762,0,0,1,263.1-6.435c1.08,0,1.7.7,1.7,1.935V0h1.815V-5.055a2.715,2.715,0,0,0-2.82-3.03,2.871,2.871,0,0,0-2.475,1.38V-7.92H259.5Zm12.57.165a3.17,3.17,0,0,0,2.7-1.485V0h1.815V-10.95H274.77v4.26a3.24,3.24,0,0,0-2.7-1.4,3.78,3.78,0,0,0-3.675,4.11v.03A3.8,3.8,0,0,0,272.07.165ZM272.5-1.41a2.356,2.356,0,0,1-2.28-2.535v-.03A2.322,2.322,0,0,1,272.5-6.51a2.377,2.377,0,0,1,2.3,2.535v.03A2.386,2.386,0,0,1,272.5-1.41ZM283.575,0h4.86c2.34,0,3.885-1,3.885-2.88v-.03a2.575,2.575,0,0,0-2.085-2.55,2.5,2.5,0,0,0,1.5-2.34v-.03a2.352,2.352,0,0,0-.705-1.74,3.791,3.791,0,0,0-2.745-.93h-4.71Zm6.315-7.5c0,.96-.8,1.425-1.98,1.425h-2.52v-2.79h2.655c1.185,0,1.845.51,1.845,1.335Zm.585,4.395v.03c0,.945-.765,1.44-2.025,1.44h-3.06v-2.88h2.925C289.77-4.515,290.475-3.99,290.475-3.105ZM294.4,0h7.365V-1.68h-5.52V-10.5H294.4Zm9.285,0h7.86V-1.65h-6.015V-4.47H310.8V-6.12h-5.265V-8.85h5.94V-10.5H303.69ZM321.3.165A3.17,3.17,0,0,0,324-1.32V0h1.815V-10.95H324v4.26a3.24,3.24,0,0,0-2.7-1.4,3.78,3.78,0,0,0-3.675,4.11v.03A3.8,3.8,0,0,0,321.3.165Zm.435-1.575a2.356,2.356,0,0,1-2.28-2.535v-.03a2.322,2.322,0,0,1,2.28-2.535,2.377,2.377,0,0,1,2.3,2.535v.03A2.386,2.386,0,0,1,321.735-1.41Zm9.99,1.59a4.006,4.006,0,0,0,3.24-1.485L333.9-2.25a2.876,2.876,0,0,1-2.145.945,2.211,2.211,0,0,1-2.28-2.01h5.82c.015-.18.03-.345.03-.51,0-2.28-1.275-4.26-3.795-4.26a3.931,3.931,0,0,0-3.87,4.125v.03A3.952,3.952,0,0,0,331.725.18Zm-2.265-4.7A2.143,2.143,0,0,1,331.515-6.6a2.056,2.056,0,0,1,2.01,2.085ZM339.285.06h1.635l3.24-7.98h-1.9L340.11-2.1l-2.13-5.82h-1.95Zm6.45-9.2h1.95V-10.86h-1.95ZM345.81,0h1.815V-7.92H345.81Zm7.845.18a4.007,4.007,0,0,0,3.24-1.485l-1.1-1.08a2.772,2.772,0,0,1-2.055.975,2.4,2.4,0,0,1-2.37-2.535v-.03a2.389,2.389,0,0,1,2.3-2.52,2.658,2.658,0,0,1,2.04.99l1.14-1.215a4,4,0,0,0-3.165-1.365,4.088,4.088,0,0,0-4.125,4.14v.03A4.044,4.044,0,0,0,353.655.18Zm8.31,0a4.006,4.006,0,0,0,3.24-1.485L364.14-2.25a2.876,2.876,0,0,1-2.145.945,2.211,2.211,0,0,1-2.28-2.01h5.82c.015-.18.03-.345.03-.51,0-2.28-1.275-4.26-3.795-4.26A3.931,3.931,0,0,0,357.9-3.96v.03A3.952,3.952,0,0,0,361.965.18Zm-2.265-4.7A2.143,2.143,0,0,1,361.755-6.6a2.056,2.056,0,0,1,2.01,2.085ZM370.11.15c1.65,0,2.94-.825,2.94-2.49v-.03c0-1.425-1.305-1.95-2.46-2.31-.93-.3-1.785-.54-1.785-1.125v-.03c0-.45.4-.78,1.11-.78a4.6,4.6,0,0,1,2.235.75l.72-1.29a5.49,5.49,0,0,0-2.91-.9c-1.575,0-2.82.915-2.82,2.415v.03c0,1.515,1.3,1.995,2.475,2.325.93.285,1.77.5,1.77,1.11v.03c0,.525-.45.855-1.23.855a4.481,4.481,0,0,1-2.6-.975l-.81,1.23A5.564,5.564,0,0,0,370.11.15Z" transform="translate(112.5 528.012)" fill="#666"/>
    <path id="Path_7371" data-name="Path 7371" d="M1.35,0H3.2V-3.375H5.28c2.31,0,4.2-1.23,4.2-3.585v-.03c0-2.115-1.53-3.51-3.99-3.51H1.35ZM3.2-5.04V-8.82H5.34c1.38,0,2.265.645,2.265,1.875v.03c0,1.1-.87,1.875-2.265,1.875ZM11.16,0h1.815V-3.015c0-2.1,1.11-3.135,2.7-3.135h.105V-8.07a2.808,2.808,0,0,0-2.805,1.935V-7.92H11.16Zm9.555.18a4.006,4.006,0,0,0,3.24-1.485L22.89-2.25a2.876,2.876,0,0,1-2.145.945,2.211,2.211,0,0,1-2.28-2.01h5.82c.015-.18.03-.345.03-.51,0-2.28-1.275-4.26-3.8-4.26A3.931,3.931,0,0,0,16.65-3.96v.03A3.952,3.952,0,0,0,20.715.18Zm-2.265-4.7A2.143,2.143,0,0,1,20.505-6.6a2.056,2.056,0,0,1,2.01,2.085ZM28.86.15c1.65,0,2.94-.825,2.94-2.49v-.03c0-1.425-1.305-1.95-2.46-2.31-.93-.3-1.785-.54-1.785-1.125v-.03c0-.45.405-.78,1.11-.78a4.6,4.6,0,0,1,2.235.75l.72-1.29a5.491,5.491,0,0,0-2.91-.9c-1.575,0-2.82.915-2.82,2.415v.03c0,1.515,1.305,1.995,2.475,2.325.93.285,1.77.5,1.77,1.11v.03c0,.525-.45.855-1.23.855a4.481,4.481,0,0,1-2.595-.975l-.81,1.23A5.564,5.564,0,0,0,28.86.15Zm8.43.03a4.006,4.006,0,0,0,3.24-1.485L39.465-2.25a2.876,2.876,0,0,1-2.145.945,2.211,2.211,0,0,1-2.28-2.01h5.82c.015-.18.03-.345.03-.51,0-2.28-1.275-4.26-3.795-4.26a3.931,3.931,0,0,0-3.87,4.125v.03A3.952,3.952,0,0,0,37.29.18Zm-2.265-4.7A2.143,2.143,0,0,1,37.08-6.6a2.056,2.056,0,0,1,2.01,2.085ZM42.72,0h1.815V-4.47A1.762,1.762,0,0,1,46.32-6.435c1.08,0,1.695.7,1.695,1.935V0H49.83V-5.055a2.715,2.715,0,0,0-2.82-3.03,2.871,2.871,0,0,0-2.475,1.38V-7.92H42.72ZM55.68.18a4.007,4.007,0,0,0,3.24-1.485l-1.1-1.08a2.772,2.772,0,0,1-2.055.975A2.4,2.4,0,0,1,53.4-3.945v-.03A2.389,2.389,0,0,1,55.695-6.5a2.658,2.658,0,0,1,2.04.99l1.14-1.215A4,4,0,0,0,55.71-8.085a4.088,4.088,0,0,0-4.125,4.14v.03A4.044,4.044,0,0,0,55.68.18Zm8.31,0a4.006,4.006,0,0,0,3.24-1.485L66.165-2.25a2.876,2.876,0,0,1-2.145.945,2.211,2.211,0,0,1-2.28-2.01h5.82c.015-.18.03-.345.03-.51,0-2.28-1.275-4.26-3.8-4.26a3.931,3.931,0,0,0-3.87,4.125v.03A3.952,3.952,0,0,0,63.99.18Zm-2.265-4.7A2.143,2.143,0,0,1,63.78-6.6a2.056,2.056,0,0,1,2.01,2.085Zm7.11,6.705a2.2,2.2,0,0,0,2.31-2.505V-2.07h-2V0h.78c.06.765-.375,1.23-1.29,1.41ZM77.64,0h8.61V-1.635H80.04l6.21-7.5V-10.5H77.835v1.635h6l-6.195,7.5ZM91.725.18A4.141,4.141,0,0,0,95.97-3.945v-.03a4.1,4.1,0,0,0-4.215-4.11,4.14,4.14,0,0,0-4.23,4.14v.03A4.1,4.1,0,0,0,91.725.18Zm.03-1.59A2.441,2.441,0,0,1,89.34-3.945v-.03A2.377,2.377,0,0,1,91.725-6.5a2.448,2.448,0,0,1,2.43,2.55v.03A2.376,2.376,0,0,1,91.755-1.41ZM97.815,0H99.63V-4.47a1.762,1.762,0,0,1,1.785-1.965c1.08,0,1.695.7,1.695,1.935V0h1.815V-5.055a2.715,2.715,0,0,0-2.82-3.03,2.871,2.871,0,0,0-2.475,1.38V-7.92H97.815Zm12.93.18a4.006,4.006,0,0,0,3.24-1.485L112.92-2.25a2.876,2.876,0,0,1-2.145.945,2.211,2.211,0,0,1-2.28-2.01h5.82c.015-.18.03-.345.03-.51,0-2.28-1.275-4.26-3.8-4.26a3.931,3.931,0,0,0-3.87,4.125v.03A3.952,3.952,0,0,0,110.745.18Zm-2.265-4.7A2.143,2.143,0,0,1,110.535-6.6a2.056,2.056,0,0,1,2.01,2.085ZM123.33.135a3.138,3.138,0,0,0,1.635-.405V-1.755a2.44,2.44,0,0,1-1.125.27.864.864,0,0,1-.975-.99V-6.36H125V-7.92h-2.13V-10.1H121.05V-7.92h-1v1.56h1v4.17A2.03,2.03,0,0,0,123.33.135ZM126.84,0h1.815V-3.015c0-2.1,1.11-3.135,2.7-3.135h.1V-8.07a2.808,2.808,0,0,0-2.805,1.935V-7.92H126.84Zm8.1.165A3.219,3.219,0,0,0,137.52-.99V0h1.77V-4.7a3.287,3.287,0,0,0-.855-2.445,3.549,3.549,0,0,0-2.625-.885,6.758,6.758,0,0,0-2.985.645l.48,1.425a5.514,5.514,0,0,1,2.265-.495c1.275,0,1.965.6,1.965,1.725v.2a6.616,6.616,0,0,0-2.13-.33c-1.935,0-3.27.84-3.27,2.55v.03A2.53,2.53,0,0,0,134.94.165Zm.51-1.32c-.87,0-1.545-.435-1.545-1.2v-.03c0-.825.69-1.32,1.86-1.32a5.032,5.032,0,0,1,1.8.315v.54C137.565-1.845,136.65-1.155,135.45-1.155ZM145.125.18a4.007,4.007,0,0,0,3.24-1.485l-1.095-1.08a2.772,2.772,0,0,1-2.055.975,2.4,2.4,0,0,1-2.37-2.535v-.03A2.389,2.389,0,0,1,145.14-6.5a2.658,2.658,0,0,1,2.04.99l1.14-1.215a4,4,0,0,0-3.165-1.365,4.088,4.088,0,0,0-4.125,4.14v.03A4.044,4.044,0,0,0,145.125.18Zm4.9-.18h1.815V-2.265l1.125-1.17L155.31,0h2.13l-3.255-4.7,3.15-3.225H155.13l-3.285,3.51v-6.54H150.03Zm8.76-9.135h1.95V-10.86h-1.95ZM158.865,0h1.815V-7.92h-1.815Zm4.185,0h1.815V-4.47a1.762,1.762,0,0,1,1.785-1.965c1.08,0,1.695.7,1.695,1.935V0h1.815V-5.055a2.715,2.715,0,0,0-2.82-3.03,2.871,2.871,0,0,0-2.475,1.38V-7.92H163.05Zm12.825,2.43a4.458,4.458,0,0,0,3.255-1.065,4.052,4.052,0,0,0,1.005-2.985v-6.3H178.32v1.185a3.417,3.417,0,0,0-2.775-1.35,3.572,3.572,0,0,0-3.6,3.72v.03a3.559,3.559,0,0,0,3.6,3.7,3.318,3.318,0,0,0,2.79-1.455v.615A2.214,2.214,0,0,1,175.83.96a5.191,5.191,0,0,1-2.82-.84l-.675,1.365A6.823,6.823,0,0,0,175.875,2.43Zm.15-4.605a2.157,2.157,0,0,1-2.25-2.175v-.03a2.14,2.14,0,0,1,2.25-2.175A2.212,2.212,0,0,1,178.35-4.38v.03A2.212,2.212,0,0,1,176.025-2.175ZM181.98,2.19a2.2,2.2,0,0,0,2.31-2.505V-2.07h-1.995V0h.78c.06.765-.375,1.23-1.29,1.41ZM190.26,0h1.89l1.08-2.535h4.965L199.26,0h1.95l-4.62-10.575h-1.71ZM193.9-4.17l1.8-4.2,1.815,4.2ZM205.515.15c1.65,0,2.94-.825,2.94-2.49v-.03c0-1.425-1.3-1.95-2.46-2.31-.93-.3-1.785-.54-1.785-1.125v-.03c0-.45.4-.78,1.11-.78a4.6,4.6,0,0,1,2.235.75l.72-1.29a5.491,5.491,0,0,0-2.91-.9c-1.575,0-2.82.915-2.82,2.415v.03c0,1.515,1.305,1.995,2.475,2.325.93.285,1.77.5,1.77,1.11v.03c0,.525-.45.855-1.23.855a4.481,4.481,0,0,1-2.6-.975l-.81,1.23A5.564,5.564,0,0,0,205.515.15Zm7.365,0c1.65,0,2.94-.825,2.94-2.49v-.03c0-1.425-1.3-1.95-2.46-2.31-.93-.3-1.785-.54-1.785-1.125v-.03c0-.45.4-.78,1.11-.78a4.6,4.6,0,0,1,2.235.75l.72-1.29a5.491,5.491,0,0,0-2.91-.9c-1.575,0-2.82.915-2.82,2.415v.03c0,1.515,1.305,1.995,2.475,2.325.93.285,1.77.5,1.77,1.11v.03c0,.525-.45.855-1.23.855a4.481,4.481,0,0,1-2.6-.975l-.81,1.23A5.564,5.564,0,0,0,212.88.15Zm8.43.03a4.006,4.006,0,0,0,3.24-1.485l-1.065-.945a2.876,2.876,0,0,1-2.145.945,2.211,2.211,0,0,1-2.28-2.01h5.82c.015-.18.03-.345.03-.51,0-2.28-1.275-4.26-3.795-4.26a3.931,3.931,0,0,0-3.87,4.125v.03A3.952,3.952,0,0,0,221.31.18Zm-2.265-4.7A2.143,2.143,0,0,1,221.1-6.6a2.056,2.056,0,0,1,2.01,2.085ZM229.4.135A3.138,3.138,0,0,0,231.03-.27V-1.755a2.44,2.44,0,0,1-1.125.27.864.864,0,0,1-.975-.99V-6.36h2.13V-7.92h-2.13V-10.1h-1.815V-7.92H226.11v1.56h1.005v4.17A2.03,2.03,0,0,0,229.4.135Zm10.665,0A3.138,3.138,0,0,0,241.7-.27V-1.755a2.44,2.44,0,0,1-1.125.27.864.864,0,0,1-.975-.99V-6.36h2.13V-7.92H239.6V-10.1H237.78V-7.92h-1.005v1.56h1.005v4.17A2.03,2.03,0,0,0,240.06.135ZM243.57,0h1.815V-3.015c0-2.1,1.11-3.135,2.7-3.135h.1V-8.07a2.808,2.808,0,0,0-2.8,1.935V-7.92H243.57Zm8.1.165A3.219,3.219,0,0,0,254.25-.99V0h1.77V-4.7a3.286,3.286,0,0,0-.855-2.445,3.549,3.549,0,0,0-2.625-.885,6.758,6.758,0,0,0-2.985.645l.48,1.425A5.514,5.514,0,0,1,252.3-6.45c1.275,0,1.965.6,1.965,1.725v.2a6.616,6.616,0,0,0-2.13-.33c-1.935,0-3.27.84-3.27,2.55v.03A2.53,2.53,0,0,0,251.67.165Zm.51-1.32c-.87,0-1.545-.435-1.545-1.2v-.03c0-.825.69-1.32,1.86-1.32a5.032,5.032,0,0,1,1.8.315v.54C254.295-1.845,253.38-1.155,252.18-1.155ZM261.855.18a4.007,4.007,0,0,0,3.24-1.485L264-2.385a2.772,2.772,0,0,1-2.055.975,2.4,2.4,0,0,1-2.37-2.535v-.03a2.389,2.389,0,0,1,2.3-2.52,2.658,2.658,0,0,1,2.04.99l1.14-1.215a4,4,0,0,0-3.165-1.365,4.088,4.088,0,0,0-4.125,4.14v.03A4.044,4.044,0,0,0,261.855.18ZM266.76,0h1.815V-2.265l1.125-1.17L272.04,0h2.13l-3.255-4.7,3.15-3.225H271.86l-3.285,3.51v-6.54H266.76Zm8.76-9.135h1.95V-10.86h-1.95ZM275.6,0h1.815V-7.92H275.6Zm4.185,0H281.6V-4.47a1.762,1.762,0,0,1,1.785-1.965c1.08,0,1.7.7,1.7,1.935V0h1.815V-5.055a2.715,2.715,0,0,0-2.82-3.03,2.871,2.871,0,0,0-2.475,1.38V-7.92H279.78Zm12.825,2.43a4.458,4.458,0,0,0,3.255-1.065,4.052,4.052,0,0,0,1-2.985v-6.3H295.05v1.185a3.417,3.417,0,0,0-2.775-1.35,3.572,3.572,0,0,0-3.6,3.72v.03a3.559,3.559,0,0,0,3.6,3.7,3.317,3.317,0,0,0,2.79-1.455v.615A2.214,2.214,0,0,1,292.56.96a5.192,5.192,0,0,1-2.82-.84l-.675,1.365A6.823,6.823,0,0,0,292.605,2.43Zm.15-4.605a2.157,2.157,0,0,1-2.25-2.175v-.03a2.14,2.14,0,0,1,2.25-2.175A2.212,2.212,0,0,1,295.08-4.38v.03A2.212,2.212,0,0,1,292.755-2.175Z" transform="translate(112.5 571.012)" fill="#666"/>
    <path id="Path_7372" data-name="Path 7372" d="M1.35,14H9.21V12.35H3.2V9.53H8.46V7.88H3.2V5.15h5.94V3.5H1.35ZM12.585,6.08h-1.98L13.4,9.965,10.5,14h1.935l1.935-2.82L16.32,14H18.3L15.39,9.95l2.79-3.87H16.245l-1.83,2.655Zm9.96,8.055a3.138,3.138,0,0,0,1.635-.405V12.245a2.44,2.44,0,0,1-1.125.27.864.864,0,0,1-.975-.99V7.64h2.13V6.08H22.08V3.9H20.265V6.08h-1V7.64h1v4.17A2.03,2.03,0,0,0,22.545,14.135ZM26.055,14H27.87V10.985c0-2.1,1.11-3.135,2.7-3.135h.1V5.93A2.808,2.808,0,0,0,27.87,7.865V6.08H26.055Zm9.555.18a4.006,4.006,0,0,0,3.24-1.485l-1.065-.945a2.876,2.876,0,0,1-2.145.945,2.211,2.211,0,0,1-2.28-2.01h5.82c.015-.18.03-.345.03-.51,0-2.28-1.275-4.26-3.795-4.26a3.931,3.931,0,0,0-3.87,4.125v.03A3.952,3.952,0,0,0,35.61,14.18Zm-2.265-4.7A2.143,2.143,0,0,1,35.4,7.4a2.056,2.056,0,0,1,2.01,2.085ZM41.04,14h1.815V9.53A1.73,1.73,0,0,1,44.55,7.565c1,0,1.6.69,1.6,1.92V14H47.97V9.53c0-1.275.705-1.965,1.695-1.965,1.02,0,1.6.675,1.6,1.935V14h1.815V8.945c0-1.935-1.05-3.03-2.775-3.03a3.186,3.186,0,0,0-2.67,1.4,2.513,2.513,0,0,0-2.37-1.4A2.838,2.838,0,0,0,42.855,7.28V6.08H41.04Zm17.88.18a4.006,4.006,0,0,0,3.24-1.485L61.1,11.75a2.876,2.876,0,0,1-2.145.945,2.211,2.211,0,0,1-2.28-2.01h5.82c.015-.18.03-.345.03-.51,0-2.28-1.275-4.26-3.8-4.26a3.931,3.931,0,0,0-3.87,4.125v.03A3.952,3.952,0,0,0,58.92,14.18Zm-2.265-4.7A2.143,2.143,0,0,1,58.71,7.4a2.056,2.056,0,0,1,2.01,2.085ZM64.56,14h7.365V12.32H66.4V3.5H64.56Zm12.69.18A4.141,4.141,0,0,0,81.5,10.055v-.03a4.224,4.224,0,0,0-8.445.03v.03A4.1,4.1,0,0,0,77.25,14.18Zm.03-1.59a2.441,2.441,0,0,1-2.415-2.535v-.03A2.377,2.377,0,0,1,77.25,7.5a2.448,2.448,0,0,1,2.43,2.55v.03A2.376,2.376,0,0,1,77.28,12.59ZM87,14.18a4.007,4.007,0,0,0,3.24-1.485l-1.1-1.08a2.772,2.772,0,0,1-2.055.975,2.4,2.4,0,0,1-2.37-2.535v-.03a2.389,2.389,0,0,1,2.3-2.52,2.658,2.658,0,0,1,2.04.99l1.14-1.215A4,4,0,0,0,87.03,5.915a4.088,4.088,0,0,0-4.125,4.14v.03A4.044,4.044,0,0,0,87,14.18Zm7.185-.015a3.219,3.219,0,0,0,2.58-1.155V14h1.77V9.305A3.287,3.287,0,0,0,97.68,6.86a3.549,3.549,0,0,0-2.625-.885,6.758,6.758,0,0,0-2.985.645l.48,1.425a5.514,5.514,0,0,1,2.265-.5c1.275,0,1.965.6,1.965,1.725V9.47a6.616,6.616,0,0,0-2.13-.33c-1.935,0-3.27.84-3.27,2.55v.03A2.53,2.53,0,0,0,94.185,14.165Zm.51-1.32c-.87,0-1.545-.435-1.545-1.2v-.03c0-.825.69-1.32,1.86-1.32a5.032,5.032,0,0,1,1.8.315v.54C96.81,12.155,95.895,12.845,94.695,12.845Zm8.595,1.29a3.138,3.138,0,0,0,1.635-.405V12.245a2.44,2.44,0,0,1-1.125.27.864.864,0,0,1-.975-.99V7.64h2.13V6.08h-2.13V3.9H101.01V6.08h-1V7.64h1v4.17A2.03,2.03,0,0,0,103.29,14.135Zm3.54-9.27h1.95V3.14h-1.95ZM106.9,14h1.815V6.08H106.9Zm7.95.18a4.141,4.141,0,0,0,4.245-4.125v-.03a4.224,4.224,0,0,0-8.445.03v.03A4.1,4.1,0,0,0,114.855,14.18Zm.03-1.59a2.441,2.441,0,0,1-2.415-2.535v-.03a2.377,2.377,0,0,1,2.385-2.52,2.448,2.448,0,0,1,2.43,2.55v.03A2.376,2.376,0,0,1,114.885,12.59Zm6.06,1.41h1.815V9.53a1.762,1.762,0,0,1,1.785-1.965c1.08,0,1.695.7,1.695,1.935V14h1.815V8.945a2.715,2.715,0,0,0-2.82-3.03,2.871,2.871,0,0,0-2.475,1.38V6.08h-1.815Zm14.01,0h7.86V12.35H136.8V9.53h5.265V7.88H136.8V5.15h5.94V3.5h-7.785Zm12.555.15c1.65,0,2.94-.825,2.94-2.49v-.03c0-1.425-1.3-1.95-2.46-2.31-.93-.3-1.785-.54-1.785-1.125v-.03c0-.45.4-.78,1.11-.78a4.6,4.6,0,0,1,2.235.75l.72-1.29a5.491,5.491,0,0,0-2.91-.9c-1.575,0-2.82.915-2.82,2.415v.03c0,1.515,1.305,2,2.475,2.325.93.285,1.77.495,1.77,1.11v.03c0,.525-.45.855-1.23.855a4.481,4.481,0,0,1-2.6-.975l-.81,1.23A5.564,5.564,0,0,0,147.51,14.15Zm7.365,0c1.65,0,2.94-.825,2.94-2.49v-.03c0-1.425-1.3-1.95-2.46-2.31-.93-.3-1.785-.54-1.785-1.125v-.03c0-.45.4-.78,1.11-.78a4.6,4.6,0,0,1,2.235.75l.72-1.29a5.491,5.491,0,0,0-2.91-.9c-1.575,0-2.82.915-2.82,2.415v.03c0,1.515,1.305,2,2.475,2.325.93.285,1.77.495,1.77,1.11v.03c0,.525-.45.855-1.23.855a4.481,4.481,0,0,1-2.6-.975l-.81,1.23A5.564,5.564,0,0,0,154.875,14.15Zm8.43.03a4.006,4.006,0,0,0,3.24-1.485l-1.065-.945a2.876,2.876,0,0,1-2.145.945,2.211,2.211,0,0,1-2.28-2.01h5.82c.015-.18.03-.345.03-.51,0-2.28-1.275-4.26-3.795-4.26a3.931,3.931,0,0,0-3.87,4.125v.03A3.952,3.952,0,0,0,163.305,14.18Zm-2.265-4.7A2.143,2.143,0,0,1,163.1,7.4a2.056,2.056,0,0,1,2.01,2.085ZM168.735,14h1.815V9.53a1.762,1.762,0,0,1,1.785-1.965c1.08,0,1.695.7,1.695,1.935V14h1.815V8.945a2.715,2.715,0,0,0-2.82-3.03,2.871,2.871,0,0,0-2.475,1.38V6.08h-1.815Zm11.955.135a3.138,3.138,0,0,0,1.635-.405V12.245a2.44,2.44,0,0,1-1.125.27.864.864,0,0,1-.975-.99V7.64h2.13V6.08h-2.13V3.9H178.41V6.08H177.4V7.64h1.005v4.17A2.03,2.03,0,0,0,180.69,14.135Zm3.54-9.27h1.95V3.14h-1.95ZM184.3,14h1.815V6.08H184.3Zm6.465.165a3.219,3.219,0,0,0,2.58-1.155V14h1.77V9.305a3.287,3.287,0,0,0-.855-2.445,3.549,3.549,0,0,0-2.625-.885,6.758,6.758,0,0,0-2.985.645l.48,1.425a5.514,5.514,0,0,1,2.265-.5c1.275,0,1.965.6,1.965,1.725V9.47a6.616,6.616,0,0,0-2.13-.33c-1.935,0-3.27.84-3.27,2.55v.03A2.53,2.53,0,0,0,190.77,14.165Zm.51-1.32c-.87,0-1.545-.435-1.545-1.2v-.03c0-.825.69-1.32,1.86-1.32a5.032,5.032,0,0,1,1.8.315v.54C193.395,12.155,192.48,12.845,191.28,12.845ZM197.4,14h1.815V3.05H197.4Zm6.9.15c1.65,0,2.94-.825,2.94-2.49v-.03c0-1.425-1.3-1.95-2.46-2.31-.93-.3-1.785-.54-1.785-1.125v-.03c0-.45.4-.78,1.11-.78a4.6,4.6,0,0,1,2.235.75l.72-1.29a5.491,5.491,0,0,0-2.91-.9c-1.575,0-2.82.915-2.82,2.415v.03c0,1.515,1.305,2,2.475,2.325.93.285,1.77.495,1.77,1.11v.03c0,.525-.45.855-1.23.855a4.481,4.481,0,0,1-2.6-.975l-.81,1.23A5.564,5.564,0,0,0,204.3,14.15Zm13.815.015a3.789,3.789,0,0,0,3.675-4.11v-.03a3.789,3.789,0,0,0-3.675-4.11,3.17,3.17,0,0,0-2.7,1.485V3.05H213.6V14h1.815V12.77A3.235,3.235,0,0,0,218.115,14.165Zm-.435-1.575a2.388,2.388,0,0,1-2.31-2.535v-.03a2.388,2.388,0,0,1,2.31-2.535,2.345,2.345,0,0,1,2.265,2.535v.03A2.319,2.319,0,0,1,217.68,12.59ZM223.665,14h1.815V10.985c0-2.1,1.11-3.135,2.7-3.135h.1V5.93a2.808,2.808,0,0,0-2.8,1.935V6.08h-1.815Zm6.225-9.135h1.95V3.14h-1.95ZM229.965,14h1.815V6.08h-1.815Zm4.185,0h1.815V9.53a1.762,1.762,0,0,1,1.785-1.965c1.08,0,1.695.7,1.695,1.935V14h1.815V8.945a2.715,2.715,0,0,0-2.82-3.03,2.871,2.871,0,0,0-2.475,1.38V6.08H234.15Zm12.825,2.43a4.458,4.458,0,0,0,3.255-1.065,4.052,4.052,0,0,0,1.005-2.985V6.08H249.42V7.265a3.417,3.417,0,0,0-2.775-1.35,3.572,3.572,0,0,0-3.6,3.72v.03a3.559,3.559,0,0,0,3.6,3.7,3.318,3.318,0,0,0,2.79-1.455v.615a2.214,2.214,0,0,1-2.505,2.43,5.191,5.191,0,0,1-2.82-.84l-.675,1.365A6.823,6.823,0,0,0,246.975,16.43Zm.15-4.605a2.157,2.157,0,0,1-2.25-2.175V9.62a2.14,2.14,0,0,1,2.25-2.175A2.212,2.212,0,0,1,249.45,9.62v.03A2.212,2.212,0,0,1,247.125,11.825Zm9.105,2.325c1.65,0,2.94-.825,2.94-2.49v-.03c0-1.425-1.305-1.95-2.46-2.31-.93-.3-1.785-.54-1.785-1.125v-.03c0-.45.4-.78,1.11-.78a4.6,4.6,0,0,1,2.235.75l.72-1.29a5.49,5.49,0,0,0-2.91-.9c-1.575,0-2.82.915-2.82,2.415v.03c0,1.515,1.305,2,2.475,2.325.93.285,1.77.495,1.77,1.11v.03c0,.525-.45.855-1.23.855a4.481,4.481,0,0,1-2.6-.975l-.81,1.23A5.564,5.564,0,0,0,256.23,14.15Zm13.065.03a4.141,4.141,0,0,0,4.245-4.125v-.03a4.224,4.224,0,0,0-8.445.03v.03A4.1,4.1,0,0,0,269.295,14.18Zm.03-1.59a2.441,2.441,0,0,1-2.415-2.535v-.03a2.377,2.377,0,0,1,2.385-2.52,2.448,2.448,0,0,1,2.43,2.55v.03A2.376,2.376,0,0,1,269.325,12.59Zm8.79,1.575a2.85,2.85,0,0,0,2.475-1.395V14h1.83V6.08h-1.83v4.47A1.749,1.749,0,0,1,278.8,12.5c-1.08,0-1.7-.69-1.7-1.92V6.08h-1.815v5.04A2.72,2.72,0,0,0,278.115,14.165Zm9.225-.03a3.138,3.138,0,0,0,1.635-.405V12.245a2.44,2.44,0,0,1-1.125.27.864.864,0,0,1-.975-.99V7.64H289V6.08h-2.13V3.9H285.06V6.08h-1.005V7.64h1.005v4.17A2.03,2.03,0,0,0,287.34,14.135Zm10.665,0a3.138,3.138,0,0,0,1.635-.405V12.245a2.44,2.44,0,0,1-1.125.27.864.864,0,0,1-.975-.99V7.64h2.13V6.08h-2.13V3.9h-1.815V6.08H294.72V7.64h1.005v4.17A2.03,2.03,0,0,0,298.005,14.135Zm3.51-.135h1.815V9.53a1.762,1.762,0,0,1,1.785-1.965c1.08,0,1.7.7,1.7,1.935V14h1.815V8.945a2.715,2.715,0,0,0-2.82-3.03,2.871,2.871,0,0,0-2.475,1.38V3.05h-1.815Zm12.93.18a4.006,4.006,0,0,0,3.24-1.485l-1.065-.945a2.876,2.876,0,0,1-2.145.945,2.211,2.211,0,0,1-2.28-2.01h5.82c.015-.18.03-.345.03-.51,0-2.28-1.275-4.26-3.795-4.26a3.931,3.931,0,0,0-3.87,4.125v.03A3.952,3.952,0,0,0,314.445,14.18Zm-2.265-4.7A2.143,2.143,0,0,1,314.235,7.4a2.056,2.056,0,0,1,2.01,2.085Zm14.85,4.65a3.138,3.138,0,0,0,1.635-.405V12.245a2.44,2.44,0,0,1-1.125.27.864.864,0,0,1-.975-.99V7.64h2.13V6.08h-2.13V3.9H324.75V6.08h-1.005V7.64h1.005v4.17A2.03,2.03,0,0,0,327.03,14.135ZM330.54,14h1.815V10.985c0-2.1,1.11-3.135,2.7-3.135h.105V5.93a2.808,2.808,0,0,0-2.805,1.935V6.08H330.54Zm8.925.165a2.85,2.85,0,0,0,2.475-1.395V14h1.83V6.08h-1.83v4.47a1.749,1.749,0,0,1-1.785,1.95c-1.08,0-1.7-.69-1.7-1.92V6.08h-1.815v5.04A2.72,2.72,0,0,0,339.465,14.165Zm10.2.015a4.006,4.006,0,0,0,3.24-1.485l-1.065-.945a2.876,2.876,0,0,1-2.145.945,2.211,2.211,0,0,1-2.28-2.01h5.82c.015-.18.03-.345.03-.51,0-2.28-1.275-4.26-3.795-4.26a3.931,3.931,0,0,0-3.87,4.125v.03A3.952,3.952,0,0,0,349.665,14.18Zm-2.265-4.7A2.143,2.143,0,0,1,349.455,7.4a2.056,2.056,0,0,1,2.01,2.085Zm14.7,4.575h1.635l3.24-7.98h-1.9l-2.145,5.82-2.13-5.82h-1.95Zm8.325.1A3.219,3.219,0,0,0,373,13.01V14h1.77V9.305a3.287,3.287,0,0,0-.855-2.445,3.549,3.549,0,0,0-2.625-.885,6.758,6.758,0,0,0-2.985.645l.48,1.425a5.514,5.514,0,0,1,2.265-.5c1.275,0,1.965.6,1.965,1.725V9.47a6.617,6.617,0,0,0-2.13-.33c-1.935,0-3.27.84-3.27,2.55v.03A2.53,2.53,0,0,0,370.425,14.165Zm.51-1.32c-.87,0-1.545-.435-1.545-1.2v-.03c0-.825.69-1.32,1.86-1.32a5.032,5.032,0,0,1,1.8.315v.54C373.05,12.155,372.135,12.845,370.935,12.845ZM377.055,14h1.815V3.05h-1.815Zm6.915.165a2.85,2.85,0,0,0,2.475-1.395V14h1.83V6.08h-1.83v4.47a1.749,1.749,0,0,1-1.785,1.95c-1.08,0-1.7-.69-1.7-1.92V6.08H381.15v5.04A2.72,2.72,0,0,0,383.97,14.165Zm10.2.015a4.006,4.006,0,0,0,3.24-1.485l-1.065-.945a2.876,2.876,0,0,1-2.145.945,2.211,2.211,0,0,1-2.28-2.01h5.82c.015-.18.03-.345.03-.51,0-2.28-1.275-4.26-3.795-4.26a3.931,3.931,0,0,0-3.87,4.125v.03A3.952,3.952,0,0,0,394.17,14.18Zm-2.265-4.7A2.143,2.143,0,0,1,393.96,7.4a2.056,2.056,0,0,1,2.01,2.085Zm15.96,4.7a4.141,4.141,0,0,0,4.245-4.125v-.03a4.224,4.224,0,0,0-8.445.03v.03A4.1,4.1,0,0,0,407.865,14.18Zm.03-1.59a2.441,2.441,0,0,1-2.415-2.535v-.03a2.377,2.377,0,0,1,2.385-2.52,2.448,2.448,0,0,1,2.43,2.55v.03A2.376,2.376,0,0,1,407.895,12.59ZM414.36,14h1.815V7.64h2.07V6.14h-2.1V5.7c0-.825.36-1.2,1.05-1.2a3.189,3.189,0,0,1,1.065.195V3.17a4.856,4.856,0,0,0-1.47-.21A2.4,2.4,0,0,0,415,3.59a2.677,2.677,0,0,0-.645,1.95v.585h-1.005V7.64h1.005Zm9.84,0h1.815V3.05H424.2Zm7.95.18a4.141,4.141,0,0,0,4.245-4.125v-.03a4.224,4.224,0,0,0-8.445.03v.03A4.1,4.1,0,0,0,432.15,14.18Zm.03-1.59a2.441,2.441,0,0,1-2.415-2.535v-.03A2.377,2.377,0,0,1,432.15,7.5a2.448,2.448,0,0,1,2.43,2.55v.03A2.376,2.376,0,0,1,432.18,12.59Zm9.72,1.59a4.007,4.007,0,0,0,3.24-1.485l-1.1-1.08a2.772,2.772,0,0,1-2.055.975,2.4,2.4,0,0,1-2.37-2.535v-.03a2.389,2.389,0,0,1,2.3-2.52,2.658,2.658,0,0,1,2.04.99L445.1,7.28a4,4,0,0,0-3.165-1.365,4.088,4.088,0,0,0-4.125,4.14v.03A4.044,4.044,0,0,0,441.9,14.18Zm7.185-.015a3.219,3.219,0,0,0,2.58-1.155V14h1.77V9.305a3.287,3.287,0,0,0-.855-2.445,3.549,3.549,0,0,0-2.625-.885,6.758,6.758,0,0,0-2.985.645l.48,1.425a5.514,5.514,0,0,1,2.265-.5c1.275,0,1.965.6,1.965,1.725V9.47a6.617,6.617,0,0,0-2.13-.33c-1.935,0-3.27.84-3.27,2.55v.03A2.53,2.53,0,0,0,449.085,14.165Zm.51-1.32c-.87,0-1.545-.435-1.545-1.2v-.03c0-.825.69-1.32,1.86-1.32a5.032,5.032,0,0,1,1.8.315v.54C451.71,12.155,450.8,12.845,449.6,12.845Zm8.6,1.29a3.138,3.138,0,0,0,1.635-.405V12.245a2.44,2.44,0,0,1-1.125.27.864.864,0,0,1-.975-.99V7.64h2.13V6.08h-2.13V3.9H455.91V6.08h-1.005V7.64h1.005v4.17A2.03,2.03,0,0,0,458.19,14.135Zm3.54-9.27h1.95V3.14h-1.95ZM461.805,14h1.815V6.08h-1.815Zm7.95.18A4.141,4.141,0,0,0,474,10.055v-.03a4.224,4.224,0,0,0-8.445.03v.03A4.1,4.1,0,0,0,469.755,14.18Zm.03-1.59a2.441,2.441,0,0,1-2.415-2.535v-.03a2.377,2.377,0,0,1,2.385-2.52,2.448,2.448,0,0,1,2.43,2.55v.03A2.376,2.376,0,0,1,469.785,12.59Zm6.06,1.41h1.815V9.53a1.762,1.762,0,0,1,1.785-1.965c1.08,0,1.7.7,1.7,1.935V14h1.815V8.945a2.715,2.715,0,0,0-2.82-3.03,2.871,2.871,0,0,0-2.475,1.38V6.08h-1.815Zm9-3.7h4.44V8.51h-4.44Zm10.935,3.87a3.789,3.789,0,0,0,3.675-4.11v-.03a3.789,3.789,0,0,0-3.675-4.11,3.17,3.17,0,0,0-2.7,1.485V3.05h-1.815V14h1.815V12.77A3.235,3.235,0,0,0,495.78,14.165Zm-.435-1.575a2.388,2.388,0,0,1-2.31-2.535v-.03a2.388,2.388,0,0,1,2.31-2.535,2.345,2.345,0,0,1,2.265,2.535v.03A2.319,2.319,0,0,1,495.345,12.59Zm8.265,1.575a3.219,3.219,0,0,0,2.58-1.155V14h1.77V9.305a3.287,3.287,0,0,0-.855-2.445,3.549,3.549,0,0,0-2.625-.885,6.758,6.758,0,0,0-2.985.645l.48,1.425a5.514,5.514,0,0,1,2.265-.5c1.275,0,1.965.6,1.965,1.725V9.47a6.617,6.617,0,0,0-2.13-.33c-1.935,0-3.27.84-3.27,2.55v.03A2.53,2.53,0,0,0,503.61,14.165Zm.51-1.32c-.87,0-1.545-.435-1.545-1.2v-.03c0-.825.69-1.32,1.86-1.32a5.032,5.032,0,0,1,1.8.315v.54C506.235,12.155,505.32,12.845,504.12,12.845Zm8.73,1.3c1.65,0,2.94-.825,2.94-2.49v-.03c0-1.425-1.3-1.95-2.46-2.31-.93-.3-1.785-.54-1.785-1.125v-.03c0-.45.4-.78,1.11-.78a4.6,4.6,0,0,1,2.235.75l.72-1.29a5.491,5.491,0,0,0-2.91-.9c-1.575,0-2.82.915-2.82,2.415v.03c0,1.515,1.3,2,2.475,2.325.93.285,1.77.495,1.77,1.11v.03c0,.525-.45.855-1.23.855a4.481,4.481,0,0,1-2.6-.975l-.81,1.23A5.564,5.564,0,0,0,512.85,14.15Zm8.43.03a4.006,4.006,0,0,0,3.24-1.485l-1.065-.945a2.876,2.876,0,0,1-2.145.945,2.211,2.211,0,0,1-2.28-2.01h5.82c.015-.18.03-.345.03-.51,0-2.28-1.275-4.26-3.795-4.26a3.931,3.931,0,0,0-3.87,4.125v.03A3.952,3.952,0,0,0,521.28,14.18Zm-2.265-4.7A2.143,2.143,0,0,1,521.07,7.4a2.056,2.056,0,0,1,2.01,2.085Zm10.965,4.68a3.17,3.17,0,0,0,2.7-1.485V14h1.815V3.05H532.68V7.31a3.24,3.24,0,0,0-2.7-1.4,3.78,3.78,0,0,0-3.675,4.11v.03A3.8,3.8,0,0,0,529.98,14.165Zm.435-1.575a2.356,2.356,0,0,1-2.28-2.535v-.03a2.322,2.322,0,0,1,2.28-2.535,2.377,2.377,0,0,1,2.3,2.535v.03A2.386,2.386,0,0,1,530.415,12.59Zm13.575,1.56c1.65,0,2.94-.825,2.94-2.49v-.03c0-1.425-1.3-1.95-2.46-2.31-.93-.3-1.785-.54-1.785-1.125v-.03c0-.45.405-.78,1.11-.78a4.6,4.6,0,0,1,2.235.75l.72-1.29a5.49,5.49,0,0,0-2.91-.9c-1.575,0-2.82.915-2.82,2.415v.03c0,1.515,1.3,2,2.475,2.325.93.285,1.77.495,1.77,1.11v.03c0,.525-.45.855-1.23.855a4.481,4.481,0,0,1-2.6-.975l-.81,1.23A5.564,5.564,0,0,0,543.99,14.15Zm8.43.03a4.006,4.006,0,0,0,3.24-1.485L554.6,11.75a2.876,2.876,0,0,1-2.145.945,2.211,2.211,0,0,1-2.28-2.01h5.82c.015-.18.03-.345.03-.51,0-2.28-1.275-4.26-3.795-4.26a3.931,3.931,0,0,0-3.87,4.125v.03A3.952,3.952,0,0,0,552.42,14.18Zm-2.265-4.7A2.143,2.143,0,0,1,552.21,7.4a2.056,2.056,0,0,1,2.01,2.085ZM557.85,14h1.815V10.985c0-2.1,1.11-3.135,2.7-3.135h.1V5.93a2.808,2.808,0,0,0-2.8,1.935V6.08H557.85Zm8.7.06h1.635l3.24-7.98H569.52l-2.145,5.82-2.13-5.82H563.3Zm6.45-9.2h1.95V3.14H573ZM573.075,14h1.815V6.08h-1.815Zm7.845.18a4.007,4.007,0,0,0,3.24-1.485l-1.095-1.08a2.772,2.772,0,0,1-2.055.975,2.4,2.4,0,0,1-2.37-2.535v-.03a2.389,2.389,0,0,1,2.295-2.52,2.658,2.658,0,0,1,2.04.99l1.14-1.215a4,4,0,0,0-3.165-1.365,4.088,4.088,0,0,0-4.125,4.14v.03A4.044,4.044,0,0,0,580.92,14.18Zm8.31,0a4.006,4.006,0,0,0,3.24-1.485l-1.065-.945a2.876,2.876,0,0,1-2.145.945,2.211,2.211,0,0,1-2.28-2.01h5.82c.015-.18.03-.345.03-.51,0-2.28-1.275-4.26-3.795-4.26a3.931,3.931,0,0,0-3.87,4.125v.03A3.952,3.952,0,0,0,589.23,14.18Zm-2.265-4.7A2.143,2.143,0,0,1,589.02,7.4a2.056,2.056,0,0,1,2.01,2.085Zm10.41,4.665c1.65,0,2.94-.825,2.94-2.49v-.03c0-1.425-1.3-1.95-2.46-2.31-.93-.3-1.785-.54-1.785-1.125v-.03c0-.45.405-.78,1.11-.78a4.6,4.6,0,0,1,2.235.75l.72-1.29a5.49,5.49,0,0,0-2.91-.9c-1.575,0-2.82.915-2.82,2.415v.03c0,1.515,1.3,2,2.475,2.325.93.285,1.77.495,1.77,1.11v.03c0,.525-.45.855-1.23.855a4.481,4.481,0,0,1-2.6-.975l-.81,1.23A5.564,5.564,0,0,0,597.375,14.15Zm13.815.015a3.789,3.789,0,0,0,3.675-4.11v-.03a3.789,3.789,0,0,0-3.675-4.11,3.17,3.17,0,0,0-2.7,1.485V3.05h-1.815V14h1.815V12.77A3.235,3.235,0,0,0,611.19,14.165Zm-.435-1.575a2.388,2.388,0,0,1-2.31-2.535v-.03a2.388,2.388,0,0,1,2.31-2.535,2.345,2.345,0,0,1,2.265,2.535v.03A2.319,2.319,0,0,1,610.755,12.59Zm9.045-.63-2.235-5.88h-1.95l3.3,7.935c-.3.675-.615.9-1.125.9a2.235,2.235,0,0,1-1.065-.3l-.615,1.35a3.74,3.74,0,0,0,1.875.48c1.275,0,1.98-.6,2.61-2.22l3.15-8.145h-1.89ZM4.41,42.165a3.17,3.17,0,0,0,2.7-1.485V42H8.925V31.05H7.11v4.26a3.24,3.24,0,0,0-2.7-1.4,3.78,3.78,0,0,0-3.675,4.11v.03A3.8,3.8,0,0,0,4.41,42.165Zm.435-1.575a2.356,2.356,0,0,1-2.28-2.535v-.03a2.322,2.322,0,0,1,2.28-2.535,2.377,2.377,0,0,1,2.3,2.535v.03A2.386,2.386,0,0,1,4.845,40.59Zm9.99,1.59a4.006,4.006,0,0,0,3.24-1.485L17.01,39.75a2.876,2.876,0,0,1-2.145.945,2.211,2.211,0,0,1-2.28-2.01h5.82c.015-.18.03-.345.03-.51,0-2.28-1.275-4.26-3.8-4.26a3.931,3.931,0,0,0-3.87,4.125v.03A3.952,3.952,0,0,0,14.835,42.18ZM12.57,37.485A2.143,2.143,0,0,1,14.625,35.4a2.056,2.056,0,0,1,2.01,2.085ZM20.37,42h1.815V31.05H20.37Zm4.215-9.135h1.95V31.14h-1.95ZM24.66,42h1.815V34.08H24.66Zm6.69.06h1.635l3.24-7.98h-1.9L32.175,39.9l-2.13-5.82H28.1Zm9.6.12a4.006,4.006,0,0,0,3.24-1.485l-1.065-.945a2.876,2.876,0,0,1-2.145.945,2.211,2.211,0,0,1-2.28-2.01h5.82c.015-.18.03-.345.03-.51,0-2.28-1.275-4.26-3.8-4.26a3.931,3.931,0,0,0-3.87,4.125v.03A3.952,3.952,0,0,0,40.95,42.18Zm-2.265-4.695A2.143,2.143,0,0,1,40.74,35.4a2.056,2.056,0,0,1,2.01,2.085ZM46.38,42h1.815V38.985c0-2.1,1.11-3.135,2.7-3.135H51V33.93a2.808,2.808,0,0,0-2.805,1.935V34.08H46.38ZM52.6,32.865h1.95V31.14H52.6ZM52.68,42h1.815V34.08H52.68Zm4.185,0H58.68V37.53a1.762,1.762,0,0,1,1.785-1.965c1.08,0,1.695.705,1.695,1.935V42h1.815V36.945a2.715,2.715,0,0,0-2.82-3.03,2.871,2.871,0,0,0-2.475,1.38V34.08H56.865ZM69.69,44.43a4.458,4.458,0,0,0,3.255-1.065A4.052,4.052,0,0,0,73.95,40.38v-6.3H72.135v1.185a3.417,3.417,0,0,0-2.775-1.35,3.572,3.572,0,0,0-3.6,3.72v.03a3.559,3.559,0,0,0,3.6,3.7,3.318,3.318,0,0,0,2.79-1.455v.615a2.214,2.214,0,0,1-2.5,2.43,5.191,5.191,0,0,1-2.82-.84l-.675,1.365A6.823,6.823,0,0,0,69.69,44.43Zm.15-4.6a2.157,2.157,0,0,1-2.25-2.175v-.03a2.14,2.14,0,0,1,2.25-2.175,2.212,2.212,0,0,1,2.325,2.175v.03A2.212,2.212,0,0,1,69.84,39.825ZM80.73,44.4h1.815V40.77a3.235,3.235,0,0,0,2.7,1.4,3.789,3.789,0,0,0,3.675-4.11v-.03a3.789,3.789,0,0,0-3.675-4.11,3.17,3.17,0,0,0-2.7,1.485V34.08H80.73Zm4.08-3.81a2.388,2.388,0,0,1-2.31-2.535v-.03a2.388,2.388,0,0,1,2.31-2.535,2.345,2.345,0,0,1,2.265,2.535v.03A2.319,2.319,0,0,1,84.81,40.59Zm9.75,1.59a4.141,4.141,0,0,0,4.245-4.125v-.03a4.224,4.224,0,0,0-8.445.03v.03A4.1,4.1,0,0,0,94.56,42.18Zm.03-1.59a2.441,2.441,0,0,1-2.415-2.535v-.03a2.377,2.377,0,0,1,2.385-2.52,2.448,2.448,0,0,1,2.43,2.55v.03A2.376,2.376,0,0,1,94.59,40.59Zm7.59,1.47h1.62l1.785-5.415,1.77,5.415h1.635l2.595-7.98h-1.83l-1.62,5.43-1.755-5.46h-1.56l-1.755,5.46-1.59-5.43h-1.86Zm14.265.12a4.006,4.006,0,0,0,3.24-1.485l-1.065-.945a2.876,2.876,0,0,1-2.145.945,2.211,2.211,0,0,1-2.28-2.01h5.82c.015-.18.03-.345.03-.51,0-2.28-1.275-4.26-3.8-4.26a3.931,3.931,0,0,0-3.87,4.125v.03A3.952,3.952,0,0,0,116.445,42.18Zm-2.265-4.695a2.143,2.143,0,0,1,2.055-2.085,2.056,2.056,0,0,1,2.01,2.085ZM121.875,42h1.815V38.985c0-2.1,1.11-3.135,2.7-3.135h.105V33.93a2.808,2.808,0,0,0-2.805,1.935V34.08h-1.815Zm6.6,0h1.815V35.64h2.07v-1.5h-2.1v-.435c0-.825.36-1.2,1.05-1.2a3.189,3.189,0,0,1,1.065.195V31.17a4.856,4.856,0,0,0-1.47-.21,2.4,2.4,0,0,0-1.785.63,2.677,2.677,0,0,0-.645,1.95v.585h-1V35.64h1Zm7.965.165a2.85,2.85,0,0,0,2.475-1.4V42h1.83V34.08h-1.83v4.47a1.749,1.749,0,0,1-1.785,1.95c-1.08,0-1.695-.69-1.695-1.92v-4.5H133.62v5.04A2.72,2.72,0,0,0,136.44,42.165ZM143.115,42h1.815V31.05h-1.815Zm10.965.165a3.219,3.219,0,0,0,2.58-1.155V42h1.77V37.305a3.287,3.287,0,0,0-.855-2.445,3.549,3.549,0,0,0-2.625-.885,6.758,6.758,0,0,0-2.985.645l.48,1.425a5.514,5.514,0,0,1,2.265-.495c1.275,0,1.965.6,1.965,1.725v.195a6.616,6.616,0,0,0-2.13-.33c-1.935,0-3.27.84-3.27,2.55v.03A2.53,2.53,0,0,0,154.08,42.165Zm.51-1.32c-.87,0-1.545-.435-1.545-1.2v-.03c0-.825.69-1.32,1.86-1.32a5.032,5.032,0,0,1,1.8.315v.54C156.705,40.155,155.79,40.845,154.59,40.845ZM160.6,42h1.815V37.53a1.762,1.762,0,0,1,1.785-1.965c1.08,0,1.695.705,1.695,1.935V42h1.815V36.945a2.715,2.715,0,0,0-2.82-3.03,2.871,2.871,0,0,0-2.475,1.38V34.08H160.6Zm11.58.165a3.219,3.219,0,0,0,2.58-1.155V42h1.77V37.305a3.287,3.287,0,0,0-.855-2.445,3.549,3.549,0,0,0-2.625-.885,6.758,6.758,0,0,0-2.985.645l.48,1.425a5.514,5.514,0,0,1,2.265-.495c1.275,0,1.965.6,1.965,1.725v.195a6.616,6.616,0,0,0-2.13-.33c-1.935,0-3.27.84-3.27,2.55v.03A2.53,2.53,0,0,0,172.185,42.165Zm.51-1.32c-.87,0-1.545-.435-1.545-1.2v-.03c0-.825.69-1.32,1.86-1.32a5.032,5.032,0,0,1,1.8.315v.54C174.81,40.155,173.9,40.845,172.7,40.845ZM178.815,42h1.815V31.05h-1.815Zm7.62-2.04L184.2,34.08h-1.95l3.3,7.935c-.3.675-.615.9-1.125.9a2.235,2.235,0,0,1-1.065-.3l-.615,1.35a3.74,3.74,0,0,0,1.875.48c1.275,0,1.98-.6,2.61-2.22l3.15-8.145h-1.89Zm8.16,2.175a3.138,3.138,0,0,0,1.635-.4V40.245a2.44,2.44,0,0,1-1.125.27.864.864,0,0,1-.975-.99V35.64h2.13V34.08h-2.13V31.9h-1.815V34.08H191.31v1.56h1.005v4.17A2.03,2.03,0,0,0,194.595,42.135Zm3.54-9.27h1.95V31.14h-1.95ZM198.21,42h1.815V34.08H198.21Zm7.845.18a4.007,4.007,0,0,0,3.24-1.485l-1.095-1.08a2.772,2.772,0,0,1-2.055.975,2.4,2.4,0,0,1-2.37-2.535v-.03a2.389,2.389,0,0,1,2.295-2.52,2.658,2.658,0,0,1,2.04.99l1.14-1.215a4,4,0,0,0-3.165-1.365,4.088,4.088,0,0,0-4.125,4.14v.03A4.044,4.044,0,0,0,206.055,42.18Zm7.62-.03c1.65,0,2.94-.825,2.94-2.49v-.03c0-1.425-1.3-1.95-2.46-2.31-.93-.3-1.785-.54-1.785-1.125v-.03c0-.45.4-.78,1.11-.78a4.6,4.6,0,0,1,2.235.75l.72-1.29a5.491,5.491,0,0,0-2.91-.9c-1.575,0-2.82.915-2.82,2.415v.03c0,1.515,1.305,1.995,2.475,2.325.93.285,1.77.495,1.77,1.11v.03c0,.525-.45.855-1.23.855a4.481,4.481,0,0,1-2.6-.975l-.81,1.23A5.564,5.564,0,0,0,213.675,42.15Zm11.58.015a3.219,3.219,0,0,0,2.58-1.155V42h1.77V37.305a3.287,3.287,0,0,0-.855-2.445,3.549,3.549,0,0,0-2.625-.885,6.758,6.758,0,0,0-2.985.645l.48,1.425a5.514,5.514,0,0,1,2.265-.495c1.275,0,1.965.6,1.965,1.725v.195a6.616,6.616,0,0,0-2.13-.33c-1.935,0-3.27.84-3.27,2.55v.03A2.53,2.53,0,0,0,225.255,42.165Zm.51-1.32c-.87,0-1.545-.435-1.545-1.2v-.03c0-.825.69-1.32,1.86-1.32a5.032,5.032,0,0,1,1.8.315v.54C227.88,40.155,226.965,40.845,225.765,40.845ZM231.78,42h1.815V37.53a1.762,1.762,0,0,1,1.785-1.965c1.08,0,1.695.705,1.695,1.935V42h1.815V36.945a2.715,2.715,0,0,0-2.82-3.03,2.871,2.871,0,0,0-2.475,1.38V34.08H231.78Zm12.57.165a3.17,3.17,0,0,0,2.7-1.485V42h1.815V31.05H247.05v4.26a3.24,3.24,0,0,0-2.7-1.4,3.78,3.78,0,0,0-3.675,4.11v.03A3.8,3.8,0,0,0,244.35,42.165Zm.435-1.575a2.356,2.356,0,0,1-2.28-2.535v-.03a2.322,2.322,0,0,1,2.28-2.535,2.377,2.377,0,0,1,2.295,2.535v.03A2.386,2.386,0,0,1,244.785,40.59ZM258.3,42.135a3.138,3.138,0,0,0,1.635-.4V40.245a2.44,2.44,0,0,1-1.125.27.864.864,0,0,1-.975-.99V35.64h2.13V34.08h-2.13V31.9H256.02V34.08h-1.005v1.56h1.005v4.17A2.03,2.03,0,0,0,258.3,42.135ZM261.81,42h1.815V38.985c0-2.1,1.11-3.135,2.7-3.135h.105V33.93a2.808,2.808,0,0,0-2.805,1.935V34.08H261.81Zm9.555.18a4.006,4.006,0,0,0,3.24-1.485l-1.065-.945a2.876,2.876,0,0,1-2.145.945,2.211,2.211,0,0,1-2.28-2.01h5.82c.015-.18.03-.345.03-.51,0-2.28-1.275-4.26-3.795-4.26a3.931,3.931,0,0,0-3.87,4.125v.03A3.952,3.952,0,0,0,271.365,42.18ZM269.1,37.485a2.143,2.143,0,0,1,2.055-2.085,2.056,2.056,0,0,1,2.01,2.085Zm7.7,4.515h1.815V37.53a1.762,1.762,0,0,1,1.785-1.965c1.08,0,1.7.705,1.7,1.935V42H283.9V36.945a2.715,2.715,0,0,0-2.82-3.03,2.871,2.871,0,0,0-2.475,1.38V34.08h-1.815Zm12.57.165a3.17,3.17,0,0,0,2.7-1.485V42h1.815V31.05h-1.815v4.26a3.24,3.24,0,0,0-2.7-1.4,3.78,3.78,0,0,0-3.675,4.11v.03A3.8,3.8,0,0,0,289.365,42.165Zm.435-1.575a2.356,2.356,0,0,1-2.28-2.535v-.03a2.322,2.322,0,0,1,2.28-2.535,2.377,2.377,0,0,1,2.3,2.535v.03A2.386,2.386,0,0,1,289.8,40.59Zm9.075,1.56c1.65,0,2.94-.825,2.94-2.49v-.03c0-1.425-1.305-1.95-2.46-2.31-.93-.3-1.785-.54-1.785-1.125v-.03c0-.45.4-.78,1.11-.78a4.6,4.6,0,0,1,2.235.75l.72-1.29a5.49,5.49,0,0,0-2.91-.9c-1.575,0-2.82.915-2.82,2.415v.03c0,1.515,1.3,1.995,2.475,2.325.93.285,1.77.495,1.77,1.11v.03c0,.525-.45.855-1.23.855a4.481,4.481,0,0,1-2.6-.975l-.81,1.23A5.564,5.564,0,0,0,298.875,42.15Zm11.955-.015a3.138,3.138,0,0,0,1.635-.4V40.245a2.44,2.44,0,0,1-1.125.27.864.864,0,0,1-.975-.99V35.64h2.13V34.08h-2.13V31.9H308.55V34.08h-1.005v1.56h1.005v4.17A2.03,2.03,0,0,0,310.83,42.135Zm7.05.045a4.141,4.141,0,0,0,4.245-4.125v-.03a4.224,4.224,0,0,0-8.445.03v.03A4.1,4.1,0,0,0,317.88,42.18Zm.03-1.59a2.441,2.441,0,0,1-2.415-2.535v-.03a2.377,2.377,0,0,1,2.385-2.52,2.448,2.448,0,0,1,2.43,2.55v.03A2.376,2.376,0,0,1,317.91,40.59Zm10.56,3.81h1.815V40.77a3.235,3.235,0,0,0,2.7,1.4,3.789,3.789,0,0,0,3.675-4.11v-.03a3.789,3.789,0,0,0-3.675-4.11,3.17,3.17,0,0,0-2.7,1.485V34.08H328.47Zm4.08-3.81a2.388,2.388,0,0,1-2.31-2.535v-.03a2.388,2.388,0,0,1,2.31-2.535,2.345,2.345,0,0,1,2.265,2.535v.03A2.319,2.319,0,0,1,332.55,40.59ZM338.535,42h1.815V38.985c0-2.1,1.11-3.135,2.7-3.135h.105V33.93a2.808,2.808,0,0,0-2.805,1.935V34.08h-1.815Zm9.69.18a4.141,4.141,0,0,0,4.245-4.125v-.03a4.224,4.224,0,0,0-8.445.03v.03A4.1,4.1,0,0,0,348.225,42.18Zm.03-1.59a2.441,2.441,0,0,1-2.415-2.535v-.03a2.377,2.377,0,0,1,2.385-2.52,2.448,2.448,0,0,1,2.43,2.55v.03A2.376,2.376,0,0,1,348.255,40.59Zm8.115,1.47H358l3.24-7.98h-1.9l-2.145,5.82-2.13-5.82h-1.95Zm6.45-9.2h1.95V31.14h-1.95ZM362.895,42h1.815V34.08h-1.815Zm7.455.165a3.17,3.17,0,0,0,2.7-1.485V42h1.815V31.05H373.05v4.26a3.24,3.24,0,0,0-2.7-1.4,3.78,3.78,0,0,0-3.675,4.11v.03A3.8,3.8,0,0,0,370.35,42.165Zm.435-1.575a2.356,2.356,0,0,1-2.28-2.535v-.03a2.322,2.322,0,0,1,2.28-2.535,2.377,2.377,0,0,1,2.3,2.535v.03A2.386,2.386,0,0,1,370.785,40.59Zm9.99,1.59a4.006,4.006,0,0,0,3.24-1.485l-1.065-.945a2.876,2.876,0,0,1-2.145.945,2.211,2.211,0,0,1-2.28-2.01h5.82c.015-.18.03-.345.03-.51,0-2.28-1.275-4.26-3.795-4.26a3.931,3.931,0,0,0-3.87,4.125v.03A3.952,3.952,0,0,0,380.775,42.18Zm-2.265-4.695a2.143,2.143,0,0,1,2.055-2.085,2.056,2.056,0,0,1,2.01,2.085Zm16.71,4.68a3.789,3.789,0,0,0,3.675-4.11v-.03a3.789,3.789,0,0,0-3.675-4.11,3.17,3.17,0,0,0-2.7,1.485V31.05H390.7V42h1.815V40.77A3.235,3.235,0,0,0,395.22,42.165Zm-.435-1.575a2.388,2.388,0,0,1-2.31-2.535v-.03a2.388,2.388,0,0,1,2.31-2.535,2.345,2.345,0,0,1,2.265,2.535v.03A2.319,2.319,0,0,1,394.785,40.59Zm8.715,1.575a2.85,2.85,0,0,0,2.475-1.4V42h1.83V34.08h-1.83v4.47a1.749,1.749,0,0,1-1.785,1.95c-1.08,0-1.7-.69-1.7-1.92v-4.5H400.68v5.04A2.72,2.72,0,0,0,403.5,42.165Zm9.285-.015c1.65,0,2.94-.825,2.94-2.49v-.03c0-1.425-1.305-1.95-2.46-2.31-.93-.3-1.785-.54-1.785-1.125v-.03c0-.45.4-.78,1.11-.78a4.6,4.6,0,0,1,2.235.75l.72-1.29a5.49,5.49,0,0,0-2.91-.9c-1.575,0-2.82.915-2.82,2.415v.03c0,1.515,1.3,1.995,2.475,2.325.93.285,1.77.495,1.77,1.11v.03c0,.525-.45.855-1.23.855a4.481,4.481,0,0,1-2.6-.975l-.81,1.23A5.564,5.564,0,0,0,412.785,42.15Zm4.83-9.285h1.95V31.14h-1.95ZM417.69,42H419.5V34.08H417.69Zm4.185,0h1.815V37.53a1.762,1.762,0,0,1,1.785-1.965c1.08,0,1.7.705,1.7,1.935V42h1.815V36.945a2.715,2.715,0,0,0-2.82-3.03,2.871,2.871,0,0,0-2.475,1.38V34.08h-1.815Zm12.93.18a4.006,4.006,0,0,0,3.24-1.485l-1.065-.945a2.876,2.876,0,0,1-2.145.945,2.211,2.211,0,0,1-2.28-2.01h5.82c.015-.18.03-.345.03-.51,0-2.28-1.275-4.26-3.795-4.26a3.931,3.931,0,0,0-3.87,4.125v.03A3.952,3.952,0,0,0,434.8,42.18Zm-2.265-4.695a2.143,2.143,0,0,1,2.055-2.085,2.056,2.056,0,0,1,2.01,2.085Zm10.41,4.665c1.65,0,2.94-.825,2.94-2.49v-.03c0-1.425-1.305-1.95-2.46-2.31-.93-.3-1.785-.54-1.785-1.125v-.03c0-.45.4-.78,1.11-.78a4.6,4.6,0,0,1,2.235.75l.72-1.29a5.49,5.49,0,0,0-2.91-.9c-1.575,0-2.82.915-2.82,2.415v.03c0,1.515,1.3,1.995,2.475,2.325.93.285,1.77.495,1.77,1.11v.03c0,.525-.45.855-1.23.855a4.481,4.481,0,0,1-2.6-.975l-.81,1.23A5.564,5.564,0,0,0,442.95,42.15Zm7.365,0c1.65,0,2.94-.825,2.94-2.49v-.03c0-1.425-1.305-1.95-2.46-2.31-.93-.3-1.785-.54-1.785-1.125v-.03c0-.45.4-.78,1.11-.78a4.6,4.6,0,0,1,2.235.75l.72-1.29a5.49,5.49,0,0,0-2.91-.9c-1.575,0-2.82.915-2.82,2.415v.03c0,1.515,1.3,1.995,2.475,2.325.93.285,1.77.495,1.77,1.11v.03c0,.525-.45.855-1.23.855a4.481,4.481,0,0,1-2.6-.975l-.81,1.23A5.564,5.564,0,0,0,450.315,42.15Zm9.33-9.285h1.95V31.14h-1.95ZM459.72,42h1.815V34.08H459.72Zm4.185,0h1.815V37.53a1.762,1.762,0,0,1,1.785-1.965c1.08,0,1.7.705,1.7,1.935V42h1.815V36.945a2.715,2.715,0,0,0-2.82-3.03,2.871,2.871,0,0,0-2.475,1.38V34.08H463.9Zm12.015.15c1.65,0,2.94-.825,2.94-2.49v-.03c0-1.425-1.305-1.95-2.46-2.31-.93-.3-1.785-.54-1.785-1.125v-.03c0-.45.4-.78,1.11-.78a4.6,4.6,0,0,1,2.235.75l.72-1.29a5.49,5.49,0,0,0-2.91-.9c-1.575,0-2.82.915-2.82,2.415v.03c0,1.515,1.3,1.995,2.475,2.325.93.285,1.77.495,1.77,1.11v.03c0,.525-.45.855-1.23.855a4.481,4.481,0,0,1-2.6-.975l-.81,1.23A5.564,5.564,0,0,0,475.92,42.15Zm4.83-9.285h1.95V31.14h-1.95ZM480.825,42h1.815V34.08h-1.815Zm7.71,2.43a4.458,4.458,0,0,0,3.255-1.065,4.052,4.052,0,0,0,1-2.985v-6.3H490.98v1.185a3.417,3.417,0,0,0-2.775-1.35,3.572,3.572,0,0,0-3.6,3.72v.03a3.559,3.559,0,0,0,3.6,3.7,3.317,3.317,0,0,0,2.79-1.455v.615a2.214,2.214,0,0,1-2.505,2.43,5.192,5.192,0,0,1-2.82-.84l-.675,1.365A6.823,6.823,0,0,0,488.535,44.43Zm.15-4.6a2.157,2.157,0,0,1-2.25-2.175v-.03a2.14,2.14,0,0,1,2.25-2.175,2.212,2.212,0,0,1,2.325,2.175v.03A2.212,2.212,0,0,1,488.685,39.825ZM495.075,42h1.815V37.53a1.762,1.762,0,0,1,1.785-1.965c1.08,0,1.7.705,1.7,1.935V42h1.815V36.945a2.715,2.715,0,0,0-2.82-3.03,2.871,2.871,0,0,0-2.475,1.38V31.05h-1.815Zm11.955.135a3.138,3.138,0,0,0,1.635-.4V40.245a2.44,2.44,0,0,1-1.125.27.864.864,0,0,1-.975-.99V35.64h2.13V34.08h-2.13V31.9H504.75V34.08h-1.005v1.56h1.005v4.17A2.03,2.03,0,0,0,507.03,42.135Zm6.225.015c1.65,0,2.94-.825,2.94-2.49v-.03c0-1.425-1.3-1.95-2.46-2.31-.93-.3-1.785-.54-1.785-1.125v-.03c0-.45.4-.78,1.11-.78a4.6,4.6,0,0,1,2.235.75l.72-1.29a5.491,5.491,0,0,0-2.91-.9c-1.575,0-2.82.915-2.82,2.415v.03c0,1.515,1.3,1.995,2.475,2.325.93.285,1.77.495,1.77,1.11v.03c0,.525-.45.855-1.23.855a4.481,4.481,0,0,1-2.6-.975l-.81,1.23A5.564,5.564,0,0,0,513.255,42.15Z" transform="translate(112.5 601.012)" fill="#666"/>
    <circle id="Ellipse_491" data-name="Ellipse 491" cx="8" cy="8" r="8" transform="translate(81.5 514.012)" fill="#8774d4"/>
    <circle id="Ellipse_492" data-name="Ellipse 492" cx="8" cy="8" r="8" transform="translate(81.5 557.012)" fill="#8774d4"/>
    <circle id="Ellipse_493" data-name="Ellipse 493" cx="8" cy="8" r="8" transform="translate(81.5 602.012)" fill="#8774d4"/>
  </g>
</svg>
