<?xml version="1.0" encoding="UTF-8"?>
<svg width="21px" height="21px" viewBox="0 0 21 21" version="1.1" xmlns="http://www.w3.org/2000/svg" xmlns:xlink="http://www.w3.org/1999/xlink">
    <!-- Generator: Sketch 54.1 (76490) - https://sketchapp.com -->
    <title>video-purple</title>
    <desc>Created with Sketch.</desc>
    <g id="video-purple" stroke="none" stroke-width="1" fill="none" fill-rule="evenodd">
        <circle id="Oval" fill="#AD56C3" cx="10" cy="10" r="10"></circle>
        <path d="M15.6654118,7.51694118 C15.4571765,7.38847059 15.1967059,7.37717647 14.9785882,7.48588235 L13.1764706,8.38658824 L13.1764706,7.41176471 C13.1764706,6.63317647 12.5432941,6 11.7647059,6 L5.41176471,6 C4.63317647,6 4,6.63317647 4,7.41176471 L4,13.0588235 C4,13.8374118 4.63317647,14.4705882 5.41176471,14.4705882 L11.7647059,14.4705882 C12.5432941,14.4705882 13.1764706,13.8374118 13.1764706,13.0588235 L13.1764706,12.0832941 L14.9785882,12.984 C15.0781176,13.0334118 15.1861176,13.0588235 15.2941176,13.0588235 C15.4232941,13.0588235 15.5517647,13.0228235 15.6654118,12.9529412 C15.8729412,12.8244706 16,12.5971765 16,12.3529412 L16,8.11764706 C16,7.87270588 15.8729412,7.64541176 15.6654118,7.51694118" id="Fill-1831" fill="#FFFFFF"></path>
    </g>
</svg>